<svg xmlns="http://www.w3.org/2000/svg" xmlns:xlink="http://www.w3.org/1999/xlink" width="50" zoomAndPan="magnify" viewBox="0 0 37.5 37.499999" height="50" preserveAspectRatio="xMidYMid meet" version="1.0"><defs><clipPath id="id1"><path d="M 0 0 L 37.007812 0 L 37.007812 37.007812 L 0 37.007812 Z M 0 0 " clip-rule="nonzero"/></clipPath><clipPath id="id2"><path d="M 0.601562 0.601562 L 36.601562 0.601562 L 36.601562 36.601562 L 0.601562 36.601562 Z M 0.601562 0.601562 " clip-rule="nonzero"/></clipPath></defs><g clip-path="url(#id1)"><path fill="#ffffff" d="M 0 0 L 37.5 0 L 37.5 45 L 0 45 Z M 0 0 " fill-opacity="1" fill-rule="nonzero"/><path fill="#053b69" d="M 0 0 L 37.5 0 L 37.5 37.5 L 0 37.5 Z M 0 0 " fill-opacity="1" fill-rule="nonzero"/><path fill="#ffffff" d="M 0 0 L 37.5 0 L 37.5 37.5 L 0 37.5 Z M 0 0 " fill-opacity="1" fill-rule="nonzero"/><path fill="#053b69" d="M 0 0 L 37.5 0 L 37.5 37.5 L 0 37.5 Z M 0 0 " fill-opacity="1" fill-rule="nonzero"/></g><g clip-path="url(#id2)"><path fill="#f5fbf9" d="M 18.597656 0.976562 C 8.660156 0.976562 0.601562 9.035156 0.601562 18.976562 C 0.601562 26.929688 5.757812 33.675781 12.910156 36.054688 C 13.808594 36.21875 14.140625 35.664062 14.140625 35.1875 C 14.140625 34.761719 14.125 33.628906 14.113281 32.128906 C 9.109375 33.214844 8.050781 29.714844 8.050781 29.714844 C 7.234375 27.632812 6.054688 27.082031 6.054688 27.082031 C 4.417969 25.964844 6.175781 25.988281 6.175781 25.988281 C 7.984375 26.113281 8.933594 27.84375 8.933594 27.84375 C 10.539062 30.59375 13.148438 29.800781 14.171875 29.339844 C 14.335938 28.175781 14.800781 27.382812 15.316406 26.933594 C 11.316406 26.476562 7.117188 24.933594 7.117188 18.035156 C 7.117188 16.070312 7.816406 14.464844 8.96875 13.207031 C 8.785156 12.75 8.164062 10.921875 9.144531 8.441406 C 9.144531 8.441406 10.65625 7.957031 14.09375 10.285156 C 15.53125 9.886719 17.070312 9.6875 18.601562 9.679688 C 20.128906 9.6875 21.671875 9.886719 23.109375 10.285156 C 26.542969 7.957031 28.054688 8.441406 28.054688 8.441406 C 29.035156 10.921875 28.417969 12.75 28.230469 13.207031 C 29.386719 14.464844 30.082031 16.070312 30.082031 18.035156 C 30.082031 24.949219 25.871094 26.472656 21.863281 26.917969 C 22.507812 27.472656 23.085938 28.570312 23.085938 30.25 C 23.085938 32.65625 23.0625 34.597656 23.0625 35.1875 C 23.0625 35.671875 23.386719 36.230469 24.300781 36.054688 C 31.449219 33.667969 36.601562 26.925781 36.601562 18.976562 C 36.601562 9.035156 28.539062 0.976562 18.597656 0.976562 Z M 18.597656 0.976562 " fill-opacity="1" fill-rule="evenodd"/></g></svg>