<svg xmlns="http://www.w3.org/2000/svg" xmlns:xlink="http://www.w3.org/1999/xlink" width="50" zoomAndPan="magnify" viewBox="0 0 37.5 37.499999" height="50" preserveAspectRatio="xMidYMid meet" version="1.0"><defs><clipPath id="id1"><path d="M 1.132812 12 L 10 12 L 10 37.007812 L 1.132812 37.007812 Z M 1.132812 12 " clip-rule="nonzero"/></clipPath><clipPath id="id2"><path d="M 1.132812 0.832031 L 11 0.832031 L 11 11 L 1.132812 11 Z M 1.132812 0.832031 " clip-rule="nonzero"/></clipPath><clipPath id="id3"><path d="M 13 11 L 36.382812 11 L 36.382812 37.007812 L 13 37.007812 Z M 13 11 " clip-rule="nonzero"/></clipPath></defs><g clip-path="url(#id1)"><path fill="#053b69" d="M 1.695312 37.582031 L 9.757812 37.582031 L 9.757812 12.414062 L 1.695312 12.414062 Z M 1.695312 37.582031 " fill-opacity="1" fill-rule="nonzero"/></g><g clip-path="url(#id2)"><path fill="#053b69" d="M 5.726562 0.832031 C 3.195312 0.832031 1.132812 2.894531 1.132812 5.429688 C 1.132812 7.96875 3.195312 10.03125 5.726562 10.03125 C 8.257812 10.03125 10.320312 7.96875 10.320312 5.429688 C 10.320312 2.894531 8.257812 0.832031 5.726562 0.832031 Z M 5.726562 0.832031 " fill-opacity="1" fill-rule="nonzero"/></g><g clip-path="url(#id3)"><path fill="#053b69" d="M 36.378906 20.011719 C 36.273438 15.320312 32.441406 11.648438 27.65625 11.648438 C 25.003906 11.648438 22.546875 12.824219 20.894531 14.839844 L 20.894531 12.414062 L 13.226562 12.414062 L 13.226562 37.582031 L 21.292969 37.582031 L 21.292969 23.035156 C 21.292969 21.09375 22.867188 19.519531 24.800781 19.519531 C 26.734375 19.519531 28.308594 21.09375 28.308594 23.035156 L 28.316406 37.582031 L 36.382812 37.582031 Z M 36.378906 20.011719 " fill-opacity="1" fill-rule="nonzero"/></g></svg>