<svg xmlns="http://www.w3.org/2000/svg" xmlns:xlink="http://www.w3.org/1999/xlink" width="500" zoomAndPan="magnify" viewBox="0 0 375 374.999991" height="500" preserveAspectRatio="xMidYMid meet" version="1.0"><defs><g/><clipPath id="id1"><path d="M 0 1 L 375 1 L 375 375 L 0 375 Z M 0 1 " clip-rule="nonzero"/></clipPath><clipPath id="id2"><path d="M 187.695312 13.300781 C 190.183594 13.304688 192.675781 13.359375 195.164062 13.464844 C 197.652344 13.574219 200.136719 13.734375 202.617188 13.949219 C 205.101562 14.164062 207.578125 14.433594 210.046875 14.753906 C 212.515625 15.074219 214.980469 15.449219 217.433594 15.875 C 219.886719 16.300781 222.332031 16.777344 224.765625 17.308594 C 227.199219 17.839844 229.621094 18.421875 232.03125 19.058594 C 234.4375 19.691406 236.832031 20.378906 239.210938 21.117188 C 241.589844 21.851562 243.953125 22.640625 246.300781 23.480469 C 248.644531 24.316406 250.972656 25.203125 253.28125 26.144531 C 255.585938 27.082031 257.875 28.066406 260.140625 29.101562 C 262.40625 30.140625 264.648438 31.222656 266.867188 32.355469 C 269.085938 33.488281 271.277344 34.664062 273.449219 35.890625 C 275.617188 37.117188 277.757812 38.390625 279.871094 39.707031 C 281.984375 41.023438 284.070312 42.386719 286.125 43.792969 C 288.183594 45.199219 290.207031 46.648438 292.199219 48.144531 C 294.195312 49.636719 296.15625 51.171875 298.082031 52.75 C 300.011719 54.328125 301.902344 55.945312 303.761719 57.605469 C 305.621094 59.261719 307.441406 60.960938 309.226562 62.699219 C 311.015625 64.433594 312.761719 66.207031 314.472656 68.019531 C 316.183594 69.832031 317.851562 71.679688 319.484375 73.5625 C 321.113281 75.445312 322.703125 77.363281 324.25 79.3125 C 325.800781 81.265625 327.304688 83.246094 328.769531 85.261719 C 330.234375 87.277344 331.652344 89.324219 333.03125 91.402344 C 334.40625 93.476562 335.738281 95.582031 337.023438 97.714844 C 338.308594 99.847656 339.546875 102.007812 340.742188 104.195312 C 341.933594 106.382812 343.082031 108.59375 344.179688 110.828125 C 345.277344 113.0625 346.328125 115.324219 347.332031 117.601562 C 348.332031 119.882812 349.285156 122.183594 350.1875 124.507812 C 351.09375 126.828125 351.945312 129.167969 352.75 131.523438 C 353.550781 133.882812 354.304688 136.257812 355.007812 138.648438 C 355.707031 141.039062 356.359375 143.441406 356.957031 145.859375 C 357.554688 148.277344 358.101562 150.707031 358.597656 153.148438 C 359.089844 155.589844 359.535156 158.039062 359.921875 160.5 C 360.3125 162.960938 360.648438 165.429688 360.933594 167.902344 C 361.21875 170.378906 361.449219 172.859375 361.625 175.34375 C 361.804688 177.828125 361.925781 180.316406 362 182.804688 C 362.070312 185.296875 362.085938 187.785156 362.050781 190.277344 C 362.015625 192.765625 361.929688 195.253906 361.785156 197.742188 C 361.644531 200.230469 361.449219 202.710938 361.199219 205.191406 C 360.953125 207.667969 360.652344 210.140625 360.296875 212.605469 C 359.941406 215.074219 359.535156 217.53125 359.074219 219.976562 C 358.617188 222.425781 358.105469 224.863281 357.539062 227.289062 C 356.976562 229.714844 356.359375 232.128906 355.695312 234.53125 C 355.027344 236.929688 354.308594 239.3125 353.539062 241.683594 C 352.769531 244.050781 351.949219 246.40625 351.078125 248.738281 C 350.210938 251.074219 349.289062 253.386719 348.320312 255.683594 C 347.351562 257.976562 346.332031 260.25 345.265625 262.5 C 344.199219 264.75 343.085938 266.980469 341.925781 269.183594 C 340.761719 271.386719 339.554688 273.5625 338.300781 275.714844 C 337.042969 277.867188 335.742188 279.992188 334.398438 282.085938 C 333.050781 284.183594 331.660156 286.25 330.226562 288.285156 C 328.792969 290.320312 327.3125 292.324219 325.792969 294.300781 C 324.273438 296.273438 322.710938 298.210938 321.105469 300.117188 C 319.503906 302.023438 317.859375 303.894531 316.175781 305.730469 C 314.492188 307.566406 312.769531 309.367188 311.007812 311.128906 C 309.25 312.890625 307.449219 314.613281 305.617188 316.296875 C 303.78125 317.984375 301.910156 319.628906 300.007812 321.234375 C 298.101562 322.839844 296.164062 324.402344 294.191406 325.925781 C 292.21875 327.445312 290.214844 328.925781 288.179688 330.363281 C 286.144531 331.796875 284.082031 333.191406 281.984375 334.539062 C 279.890625 335.886719 277.765625 337.1875 275.617188 338.445312 C 273.464844 339.699219 271.289062 340.910156 269.085938 342.074219 C 266.882812 343.238281 264.65625 344.355469 262.40625 345.421875 C 260.15625 346.492188 257.886719 347.511719 255.589844 348.480469 C 252.960938 349.589844 250.304688 350.636719 247.621094 351.617188 C 244.941406 352.59375 242.238281 353.507812 239.511719 354.355469 C 236.785156 355.203125 234.039062 355.980469 231.273438 356.695312 C 228.507812 357.40625 225.726562 358.050781 222.933594 358.625 C 220.136719 359.203125 217.328125 359.707031 214.503906 360.144531 C 211.683594 360.582031 208.855469 360.953125 206.015625 361.25 C 203.175781 361.550781 200.328125 361.777344 197.480469 361.9375 C 194.628906 362.097656 191.777344 362.1875 188.921875 362.207031 C 186.066406 362.222656 183.210938 362.171875 180.359375 362.054688 C 177.507812 361.933594 174.660156 361.742188 171.816406 361.480469 C 168.972656 361.21875 166.136719 360.890625 163.3125 360.488281 C 160.484375 360.089844 157.667969 359.621094 154.863281 359.082031 C 152.0625 358.542969 149.273438 357.9375 146.5 357.261719 C 143.722656 356.589844 140.96875 355.84375 138.230469 355.035156 C 135.492188 354.226562 132.777344 353.347656 130.082031 352.40625 C 127.386719 351.460938 124.71875 350.453125 122.074219 349.378906 C 119.425781 348.304688 116.808594 347.164062 114.222656 345.960938 C 111.632812 344.757812 109.074219 343.492188 106.546875 342.164062 C 104.019531 340.835938 101.527344 339.445312 99.066406 337.992188 C 96.609375 336.542969 94.1875 335.03125 91.804688 333.460938 C 89.417969 331.890625 87.074219 330.265625 84.769531 328.582031 C 82.464844 326.894531 80.203125 325.15625 77.980469 323.359375 C 75.761719 321.5625 73.589844 319.714844 71.460938 317.808594 C 69.332031 315.90625 67.25 313.953125 65.21875 311.949219 C 63.1875 309.945312 61.203125 307.890625 59.273438 305.789062 C 57.339844 303.6875 55.460938 301.539062 53.632812 299.34375 C 51.808594 297.148438 50.035156 294.910156 48.320312 292.628906 C 46.601562 290.347656 44.945312 288.027344 43.339844 285.664062 C 41.738281 283.300781 40.195312 280.898438 38.710938 278.460938 C 37.226562 276.023438 35.800781 273.550781 34.4375 271.039062 C 33.074219 268.53125 31.773438 265.992188 30.535156 263.417969 C 29.296875 260.847656 28.121094 258.246094 27.011719 255.617188 C 25.898438 252.984375 24.855469 250.332031 23.875 247.648438 C 22.894531 244.96875 21.980469 242.261719 21.128906 239.539062 C 20.28125 236.8125 19.503906 234.066406 18.789062 231.300781 C 18.078125 228.535156 17.429688 225.757812 16.855469 222.960938 C 16.277344 220.164062 15.769531 217.355469 15.332031 214.535156 C 14.894531 211.710938 14.523438 208.882812 14.222656 206.042969 C 13.925781 203.203125 13.695312 200.359375 13.535156 197.507812 C 13.375 194.660156 13.285156 191.804688 13.261719 188.949219 C 13.242188 186.09375 13.292969 183.242188 13.414062 180.390625 C 13.53125 177.535156 13.722656 174.6875 13.980469 171.84375 C 14.242188 169.003906 14.570312 166.167969 14.96875 163.339844 C 15.371094 160.511719 15.835938 157.699219 16.375 154.894531 C 16.910156 152.089844 17.515625 149.300781 18.191406 146.527344 C 18.863281 143.75 19.605469 140.996094 20.414062 138.257812 C 21.226562 135.519531 22.101562 132.804688 23.042969 130.109375 C 23.988281 127.414062 24.996094 124.742188 26.066406 122.097656 C 27.140625 119.453125 28.28125 116.835938 29.480469 114.246094 C 30.683594 111.65625 31.949219 109.097656 33.277344 106.570312 C 34.605469 104.042969 35.992188 101.546875 37.445312 99.089844 C 38.894531 96.628906 40.402344 94.207031 41.972656 91.824219 C 43.542969 89.4375 45.167969 87.09375 46.851562 84.785156 C 48.535156 82.480469 50.277344 80.21875 52.070312 78 C 53.867188 75.777344 55.714844 73.605469 57.617188 71.476562 C 59.519531 69.34375 61.472656 67.265625 63.476562 65.230469 C 65.480469 63.199219 67.535156 61.214844 69.636719 59.28125 C 71.738281 57.347656 73.882812 55.46875 76.078125 53.640625 C 78.273438 51.816406 80.507812 50.042969 82.789062 48.324219 C 85.070312 46.609375 87.394531 44.949219 89.753906 43.34375 C 92.117188 41.742188 94.515625 40.195312 96.957031 38.710938 C 99.394531 37.226562 101.867188 35.800781 104.375 34.4375 C 106.882812 33.070312 109.421875 31.769531 111.996094 30.53125 C 114.566406 29.292969 117.167969 28.117188 119.796875 27.003906 C 130.535156 22.457031 141.621094 19.03125 153.054688 16.726562 C 164.484375 14.417969 176.03125 13.277344 187.695312 13.300781 M 187.695312 1.046875 C 84.582031 1.046875 0.996094 84.628906 0.996094 187.742188 C 0.996094 290.855469 84.582031 374.4375 187.695312 374.4375 C 290.804688 374.4375 374.390625 290.855469 374.390625 187.742188 C 374.390625 84.628906 290.804688 1.046875 187.695312 1.046875 Z M 187.695312 1.046875 " clip-rule="nonzero"/></clipPath><linearGradient x1="21.5" gradientTransform="matrix(0.817052, 0, 0, 0.817052, -16.569117, -16.52087)" y1="250" x2="478.499976" gradientUnits="userSpaceOnUse" y2="250" id="id3"><stop stop-opacity="1" stop-color="rgb(52.89917%, 0%, 0%)" offset="0"/><stop stop-opacity="1" stop-color="rgb(52.729797%, 0.0137329%, 0.00762939%)" offset="0.0078125"/><stop stop-opacity="1" stop-color="rgb(52.394104%, 0.0442505%, 0.0228882%)" offset="0.015625"/><stop stop-opacity="1" stop-color="rgb(52.056885%, 0.0747681%, 0.038147%)" offset="0.0234375"/><stop stop-opacity="1" stop-color="rgb(51.719666%, 0.105286%, 0.0534058%)" offset="0.03125"/><stop stop-opacity="1" stop-color="rgb(51.383972%, 0.135803%, 0.0686646%)" offset="0.0390625"/><stop stop-opacity="1" stop-color="rgb(51.046753%, 0.166321%, 0.0854492%)" offset="0.046875"/><stop stop-opacity="1" stop-color="rgb(50.709534%, 0.196838%, 0.100708%)" offset="0.0546875"/><stop stop-opacity="1" stop-color="rgb(50.37384%, 0.227356%, 0.115967%)" offset="0.0625"/><stop stop-opacity="1" stop-color="rgb(50.036621%, 0.257874%, 0.131226%)" offset="0.0703125"/><stop stop-opacity="1" stop-color="rgb(49.699402%, 0.288391%, 0.14801%)" offset="0.078125"/><stop stop-opacity="1" stop-color="rgb(49.363708%, 0.318909%, 0.163269%)" offset="0.0859375"/><stop stop-opacity="1" stop-color="rgb(49.026489%, 0.349426%, 0.178528%)" offset="0.09375"/><stop stop-opacity="1" stop-color="rgb(48.68927%, 0.379944%, 0.193787%)" offset="0.101563"/><stop stop-opacity="1" stop-color="rgb(48.353577%, 0.410461%, 0.210571%)" offset="0.109375"/><stop stop-opacity="1" stop-color="rgb(48.016357%, 0.440979%, 0.22583%)" offset="0.117188"/><stop stop-opacity="1" stop-color="rgb(47.679138%, 0.471497%, 0.241089%)" offset="0.125"/><stop stop-opacity="1" stop-color="rgb(47.343445%, 0.502014%, 0.256348%)" offset="0.132812"/><stop stop-opacity="1" stop-color="rgb(47.006226%, 0.532532%, 0.273132%)" offset="0.140625"/><stop stop-opacity="1" stop-color="rgb(46.669006%, 0.563049%, 0.288391%)" offset="0.148438"/><stop stop-opacity="1" stop-color="rgb(46.333313%, 0.593567%, 0.30365%)" offset="0.15625"/><stop stop-opacity="1" stop-color="rgb(45.996094%, 0.624084%, 0.318909%)" offset="0.164062"/><stop stop-opacity="1" stop-color="rgb(45.658875%, 0.654602%, 0.335693%)" offset="0.171875"/><stop stop-opacity="1" stop-color="rgb(45.323181%, 0.68512%, 0.350952%)" offset="0.179688"/><stop stop-opacity="1" stop-color="rgb(44.985962%, 0.715637%, 0.366211%)" offset="0.1875"/><stop stop-opacity="1" stop-color="rgb(44.648743%, 0.746155%, 0.38147%)" offset="0.195313"/><stop stop-opacity="1" stop-color="rgb(44.313049%, 0.776672%, 0.396729%)" offset="0.203125"/><stop stop-opacity="1" stop-color="rgb(43.97583%, 0.80719%, 0.413513%)" offset="0.210938"/><stop stop-opacity="1" stop-color="rgb(43.638611%, 0.837708%, 0.428772%)" offset="0.21875"/><stop stop-opacity="1" stop-color="rgb(43.302917%, 0.868225%, 0.444031%)" offset="0.226562"/><stop stop-opacity="1" stop-color="rgb(42.965698%, 0.898743%, 0.45929%)" offset="0.234375"/><stop stop-opacity="1" stop-color="rgb(42.628479%, 0.92926%, 0.476074%)" offset="0.242187"/><stop stop-opacity="1" stop-color="rgb(42.292786%, 0.958252%, 0.491333%)" offset="0.25"/><stop stop-opacity="1" stop-color="rgb(41.955566%, 0.98877%, 0.506592%)" offset="0.257812"/><stop stop-opacity="1" stop-color="rgb(41.618347%, 1.019287%, 0.521851%)" offset="0.265625"/><stop stop-opacity="1" stop-color="rgb(41.282654%, 1.049805%, 0.538635%)" offset="0.273438"/><stop stop-opacity="1" stop-color="rgb(40.945435%, 1.080322%, 0.553894%)" offset="0.28125"/><stop stop-opacity="1" stop-color="rgb(40.608215%, 1.11084%, 0.569153%)" offset="0.289063"/><stop stop-opacity="1" stop-color="rgb(40.272522%, 1.141357%, 0.584412%)" offset="0.296875"/><stop stop-opacity="1" stop-color="rgb(39.935303%, 1.171875%, 0.601196%)" offset="0.304688"/><stop stop-opacity="1" stop-color="rgb(39.598083%, 1.202393%, 0.616455%)" offset="0.3125"/><stop stop-opacity="1" stop-color="rgb(39.260864%, 1.23291%, 0.631714%)" offset="0.320312"/><stop stop-opacity="1" stop-color="rgb(38.925171%, 1.263428%, 0.646973%)" offset="0.328125"/><stop stop-opacity="1" stop-color="rgb(38.587952%, 1.293945%, 0.663757%)" offset="0.335938"/><stop stop-opacity="1" stop-color="rgb(38.250732%, 1.324463%, 0.679016%)" offset="0.34375"/><stop stop-opacity="1" stop-color="rgb(37.915039%, 1.35498%, 0.694275%)" offset="0.351562"/><stop stop-opacity="1" stop-color="rgb(37.57782%, 1.385498%, 0.709534%)" offset="0.359375"/><stop stop-opacity="1" stop-color="rgb(37.240601%, 1.416016%, 0.726318%)" offset="0.367187"/><stop stop-opacity="1" stop-color="rgb(36.904907%, 1.446533%, 0.741577%)" offset="0.375"/><stop stop-opacity="1" stop-color="rgb(36.567688%, 1.477051%, 0.756836%)" offset="0.382813"/><stop stop-opacity="1" stop-color="rgb(36.230469%, 1.507568%, 0.772095%)" offset="0.390625"/><stop stop-opacity="1" stop-color="rgb(35.894775%, 1.538086%, 0.787354%)" offset="0.398438"/><stop stop-opacity="1" stop-color="rgb(35.557556%, 1.568604%, 0.804138%)" offset="0.40625"/><stop stop-opacity="1" stop-color="rgb(35.220337%, 1.599121%, 0.819397%)" offset="0.414063"/><stop stop-opacity="1" stop-color="rgb(34.884644%, 1.629639%, 0.834656%)" offset="0.421875"/><stop stop-opacity="1" stop-color="rgb(34.547424%, 1.660156%, 0.849915%)" offset="0.429688"/><stop stop-opacity="1" stop-color="rgb(34.210205%, 1.690674%, 0.866699%)" offset="0.4375"/><stop stop-opacity="1" stop-color="rgb(33.874512%, 1.721191%, 0.881958%)" offset="0.445312"/><stop stop-opacity="1" stop-color="rgb(33.537292%, 1.751709%, 0.897217%)" offset="0.453125"/><stop stop-opacity="1" stop-color="rgb(33.200073%, 1.782227%, 0.912476%)" offset="0.460938"/><stop stop-opacity="1" stop-color="rgb(32.86438%, 1.812744%, 0.92926%)" offset="0.46875"/><stop stop-opacity="1" stop-color="rgb(32.527161%, 1.843262%, 0.944519%)" offset="0.476562"/><stop stop-opacity="1" stop-color="rgb(32.189941%, 1.873779%, 0.959778%)" offset="0.484375"/><stop stop-opacity="1" stop-color="rgb(31.854248%, 1.902771%, 0.975037%)" offset="0.492187"/><stop stop-opacity="1" stop-color="rgb(31.517029%, 1.933289%, 0.991821%)" offset="0.5"/><stop stop-opacity="1" stop-color="rgb(31.17981%, 1.963806%, 1.00708%)" offset="0.507812"/><stop stop-opacity="1" stop-color="rgb(30.844116%, 1.994324%, 1.022339%)" offset="0.515625"/><stop stop-opacity="1" stop-color="rgb(30.506897%, 2.024841%, 1.037598%)" offset="0.523438"/><stop stop-opacity="1" stop-color="rgb(30.169678%, 2.055359%, 1.054382%)" offset="0.53125"/><stop stop-opacity="1" stop-color="rgb(29.833984%, 2.085876%, 1.069641%)" offset="0.539062"/><stop stop-opacity="1" stop-color="rgb(29.496765%, 2.116394%, 1.0849%)" offset="0.546875"/><stop stop-opacity="1" stop-color="rgb(29.159546%, 2.146912%, 1.100159%)" offset="0.554688"/><stop stop-opacity="1" stop-color="rgb(28.823853%, 2.177429%, 1.116943%)" offset="0.5625"/><stop stop-opacity="1" stop-color="rgb(28.486633%, 2.207947%, 1.132202%)" offset="0.570313"/><stop stop-opacity="1" stop-color="rgb(28.149414%, 2.238464%, 1.147461%)" offset="0.578125"/><stop stop-opacity="1" stop-color="rgb(27.813721%, 2.268982%, 1.16272%)" offset="0.585938"/><stop stop-opacity="1" stop-color="rgb(27.476501%, 2.2995%, 1.177979%)" offset="0.59375"/><stop stop-opacity="1" stop-color="rgb(27.139282%, 2.330017%, 1.194763%)" offset="0.601563"/><stop stop-opacity="1" stop-color="rgb(26.803589%, 2.360535%, 1.210022%)" offset="0.609375"/><stop stop-opacity="1" stop-color="rgb(26.46637%, 2.391052%, 1.225281%)" offset="0.617188"/><stop stop-opacity="1" stop-color="rgb(26.12915%, 2.42157%, 1.24054%)" offset="0.625"/><stop stop-opacity="1" stop-color="rgb(25.793457%, 2.452087%, 1.257324%)" offset="0.632812"/><stop stop-opacity="1" stop-color="rgb(25.456238%, 2.482605%, 1.272583%)" offset="0.640625"/><stop stop-opacity="1" stop-color="rgb(25.119019%, 2.513123%, 1.287842%)" offset="0.648438"/><stop stop-opacity="1" stop-color="rgb(24.783325%, 2.54364%, 1.303101%)" offset="0.65625"/><stop stop-opacity="1" stop-color="rgb(24.446106%, 2.574158%, 1.319885%)" offset="0.664062"/><stop stop-opacity="1" stop-color="rgb(24.108887%, 2.604675%, 1.335144%)" offset="0.671875"/><stop stop-opacity="1" stop-color="rgb(23.773193%, 2.635193%, 1.350403%)" offset="0.679688"/><stop stop-opacity="1" stop-color="rgb(23.435974%, 2.66571%, 1.365662%)" offset="0.6875"/><stop stop-opacity="1" stop-color="rgb(23.098755%, 2.696228%, 1.382446%)" offset="0.695312"/><stop stop-opacity="1" stop-color="rgb(22.763062%, 2.726746%, 1.397705%)" offset="0.703125"/><stop stop-opacity="1" stop-color="rgb(22.425842%, 2.757263%, 1.412964%)" offset="0.710938"/><stop stop-opacity="1" stop-color="rgb(22.088623%, 2.787781%, 1.428223%)" offset="0.71875"/><stop stop-opacity="1" stop-color="rgb(21.75293%, 2.818298%, 1.445007%)" offset="0.726562"/><stop stop-opacity="1" stop-color="rgb(21.41571%, 2.84729%, 1.460266%)" offset="0.734375"/><stop stop-opacity="1" stop-color="rgb(21.078491%, 2.877808%, 1.475525%)" offset="0.742187"/><stop stop-opacity="1" stop-color="rgb(20.742798%, 2.908325%, 1.490784%)" offset="0.75"/><stop stop-opacity="1" stop-color="rgb(20.405579%, 2.938843%, 1.507568%)" offset="0.757813"/><stop stop-opacity="1" stop-color="rgb(20.068359%, 2.96936%, 1.522827%)" offset="0.765625"/><stop stop-opacity="1" stop-color="rgb(19.732666%, 2.999878%, 1.538086%)" offset="0.773438"/><stop stop-opacity="1" stop-color="rgb(19.395447%, 3.030396%, 1.553345%)" offset="0.78125"/><stop stop-opacity="1" stop-color="rgb(19.058228%, 3.060913%, 1.568604%)" offset="0.789063"/><stop stop-opacity="1" stop-color="rgb(18.722534%, 3.091431%, 1.585388%)" offset="0.796875"/><stop stop-opacity="1" stop-color="rgb(18.385315%, 3.121948%, 1.600647%)" offset="0.804688"/><stop stop-opacity="1" stop-color="rgb(18.048096%, 3.152466%, 1.615906%)" offset="0.8125"/><stop stop-opacity="1" stop-color="rgb(17.710876%, 3.182983%, 1.631165%)" offset="0.820313"/><stop stop-opacity="1" stop-color="rgb(17.375183%, 3.213501%, 1.647949%)" offset="0.828125"/><stop stop-opacity="1" stop-color="rgb(17.037964%, 3.244019%, 1.663208%)" offset="0.835938"/><stop stop-opacity="1" stop-color="rgb(16.700745%, 3.274536%, 1.678467%)" offset="0.84375"/><stop stop-opacity="1" stop-color="rgb(16.365051%, 3.305054%, 1.693726%)" offset="0.851562"/><stop stop-opacity="1" stop-color="rgb(16.027832%, 3.335571%, 1.71051%)" offset="0.859375"/><stop stop-opacity="1" stop-color="rgb(15.690613%, 3.366089%, 1.725769%)" offset="0.867188"/><stop stop-opacity="1" stop-color="rgb(15.354919%, 3.396606%, 1.741028%)" offset="0.875"/><stop stop-opacity="1" stop-color="rgb(15.0177%, 3.427124%, 1.756287%)" offset="0.882812"/><stop stop-opacity="1" stop-color="rgb(14.680481%, 3.457642%, 1.773071%)" offset="0.890625"/><stop stop-opacity="1" stop-color="rgb(14.344788%, 3.488159%, 1.78833%)" offset="0.898438"/><stop stop-opacity="1" stop-color="rgb(14.007568%, 3.518677%, 1.803589%)" offset="0.90625"/><stop stop-opacity="1" stop-color="rgb(13.670349%, 3.549194%, 1.818848%)" offset="0.914062"/><stop stop-opacity="1" stop-color="rgb(13.334656%, 3.579712%, 1.835632%)" offset="0.921875"/><stop stop-opacity="1" stop-color="rgb(12.997437%, 3.610229%, 1.850891%)" offset="0.929688"/><stop stop-opacity="1" stop-color="rgb(12.660217%, 3.640747%, 1.86615%)" offset="0.9375"/><stop stop-opacity="1" stop-color="rgb(12.324524%, 3.671265%, 1.881409%)" offset="0.945312"/><stop stop-opacity="1" stop-color="rgb(11.987305%, 3.701782%, 1.898193%)" offset="0.953125"/><stop stop-opacity="1" stop-color="rgb(11.650085%, 3.7323%, 1.913452%)" offset="0.960937"/><stop stop-opacity="1" stop-color="rgb(11.314392%, 3.762817%, 1.928711%)" offset="0.96875"/><stop stop-opacity="1" stop-color="rgb(10.977173%, 3.791809%, 1.94397%)" offset="0.976562"/><stop stop-opacity="1" stop-color="rgb(10.639954%, 3.822327%, 1.959229%)" offset="0.984375"/><stop stop-opacity="1" stop-color="rgb(10.30426%, 3.852844%, 1.976013%)" offset="0.992187"/><stop stop-opacity="1" stop-color="rgb(9.967041%, 3.883362%, 1.991272%)" offset="1"/></linearGradient></defs><g clip-path="url(#id1)"><g clip-path="url(#id2)"><path fill="url(#id3)" d="M 0.996094 1.046875 L 0.996094 374.4375 L 374.390625 374.4375 L 374.390625 1.046875 Z M 0.996094 1.046875 " fill-rule="nonzero"/></g></g><g fill="#8d0000" fill-opacity="0.302"><g transform="translate(104.216782, 286.048259)"><g><path d="M 203.503906 -83.75 C 201.886719 -84.558594 200.265625 -83.75 199.457031 -82.535156 C 187.320312 -61.496094 178.824219 -50.167969 172.351562 -44.503906 C 172.351562 -44.503906 171.945312 -44.503906 171.945312 -44.097656 C 166.6875 -39.648438 163.449219 -38.839844 161.425781 -39.246094 C 156.167969 -40.054688 152.929688 -48.144531 151.3125 -54.617188 C 146.457031 -74.847656 154.953125 -104.382812 160.617188 -123.800781 C 163.855469 -134.726562 165.472656 -139.984375 165.070312 -142.816406 C 163.449219 -150.097656 156.167969 -161.425781 141.601562 -162.238281 C 130.679688 -163.046875 112.878906 -141.199219 107.617188 -134.726562 C 99.929688 -125.015625 93.863281 -114.902344 89.007812 -105.59375 C 90.222656 -112.472656 91.839844 -118.945312 93.054688 -124.609375 C 95.886719 -136.75 98.3125 -146.054688 96.289062 -154.550781 C 95.078125 -159.40625 89.414062 -164.664062 82.9375 -166.6875 C 77.273438 -168.304688 72.015625 -167.089844 67.96875 -163.046875 C 51.785156 -147.265625 33.984375 -109.640625 23.871094 -78.488281 C 26.703125 -104.785156 32.769531 -128.253906 40.863281 -147.671875 C 43.695312 -154.144531 41.671875 -161.425781 36.007812 -165.472656 L 30.34375 -169.519531 C 28.320312 -171.136719 25.894531 -171.542969 23.0625 -170.734375 C 20.632812 -169.921875 18.609375 -167.902344 17.800781 -165.472656 C 6.878906 -133.511719 -4.449219 -70.398438 -3.640625 -23.871094 C -3.238281 -16.183594 2.023438 -9.304688 9.710938 -7.6875 C 10.519531 -7.28125 11.328125 -7.28125 11.734375 -7.28125 C 14.160156 -7.28125 16.183594 -8.089844 17.800781 -9.304688 C 19.824219 -11.328125 21.039062 -13.753906 21.039062 -16.992188 C 21.039062 -25.082031 21.039062 -33.582031 21.441406 -41.265625 C 23.0625 -67.160156 47.742188 -131.894531 69.992188 -156.574219 L 70.398438 -156.574219 C 70.800781 -157.382812 72.015625 -157.785156 72.417969 -157.382812 C 73.230469 -156.976562 74.441406 -154.144531 72.417969 -147.671875 C 68.777344 -136.75 59.070312 -97.910156 58.257812 -69.585938 C 58.257812 -65.542969 59.878906 -61.496094 62.710938 -58.257812 C 65.542969 -55.425781 69.585938 -53.808594 74.039062 -53.808594 C 77.273438 -53.40625 80.511719 -55.023438 82.9375 -57.046875 C 84.960938 -59.472656 86.175781 -62.304688 86.175781 -65.136719 C 85.769531 -70.800781 85.769531 -76.0625 86.175781 -81.320312 C 86.175781 -81.320312 86.582031 -81.726562 86.582031 -82.128906 C 91.839844 -109.640625 122.183594 -146.457031 136.34375 -154.550781 L 136.75 -154.953125 C 137.152344 -154.953125 137.960938 -155.359375 138.769531 -154.550781 C 140.390625 -152.929688 141.199219 -148.480469 137.960938 -140.390625 C 133.105469 -127.441406 117.328125 -67.96875 128.253906 -43.289062 C 132.703125 -31.960938 140.792969 -28.726562 146.457031 -27.917969 C 147.671875 -27.511719 148.886719 -27.511719 150.503906 -27.511719 C 159.40625 -27.511719 169.519531 -32.367188 176.398438 -40.054688 L 176.398438 -40.457031 C 184.488281 -47.742188 193.792969 -60.6875 204.3125 -79.703125 C 205.121094 -80.917969 204.71875 -82.9375 203.503906 -83.75 Z M 203.503906 -83.75 "/></g></g></g><g fill="#8d0000" fill-opacity="0.502"><g transform="translate(101.355905, 283.187382)"><g><path d="M 203.503906 -83.75 C 201.886719 -84.558594 200.265625 -83.75 199.457031 -82.535156 C 187.320312 -61.496094 178.824219 -50.167969 172.351562 -44.503906 C 172.351562 -44.503906 171.945312 -44.503906 171.945312 -44.097656 C 166.6875 -39.648438 163.449219 -38.839844 161.425781 -39.246094 C 156.167969 -40.054688 152.929688 -48.144531 151.3125 -54.617188 C 146.457031 -74.847656 154.953125 -104.382812 160.617188 -123.800781 C 163.855469 -134.726562 165.472656 -139.984375 165.070312 -142.816406 C 163.449219 -150.097656 156.167969 -161.425781 141.601562 -162.238281 C 130.679688 -163.046875 112.878906 -141.199219 107.617188 -134.726562 C 99.929688 -125.015625 93.863281 -114.902344 89.007812 -105.59375 C 90.222656 -112.472656 91.839844 -118.945312 93.054688 -124.609375 C 95.886719 -136.75 98.3125 -146.054688 96.289062 -154.550781 C 95.078125 -159.40625 89.414062 -164.664062 82.9375 -166.6875 C 77.273438 -168.304688 72.015625 -167.089844 67.96875 -163.046875 C 51.785156 -147.265625 33.984375 -109.640625 23.871094 -78.488281 C 26.703125 -104.785156 32.769531 -128.253906 40.863281 -147.671875 C 43.695312 -154.144531 41.671875 -161.425781 36.007812 -165.472656 L 30.34375 -169.519531 C 28.320312 -171.136719 25.894531 -171.542969 23.0625 -170.734375 C 20.632812 -169.921875 18.609375 -167.902344 17.800781 -165.472656 C 6.878906 -133.511719 -4.449219 -70.398438 -3.640625 -23.871094 C -3.238281 -16.183594 2.023438 -9.304688 9.710938 -7.6875 C 10.519531 -7.28125 11.328125 -7.28125 11.734375 -7.28125 C 14.160156 -7.28125 16.183594 -8.089844 17.800781 -9.304688 C 19.824219 -11.328125 21.039062 -13.753906 21.039062 -16.992188 C 21.039062 -25.082031 21.039062 -33.582031 21.441406 -41.265625 C 23.0625 -67.160156 47.742188 -131.894531 69.992188 -156.574219 L 70.398438 -156.574219 C 70.800781 -157.382812 72.015625 -157.785156 72.417969 -157.382812 C 73.230469 -156.976562 74.441406 -154.144531 72.417969 -147.671875 C 68.777344 -136.75 59.070312 -97.910156 58.257812 -69.585938 C 58.257812 -65.542969 59.878906 -61.496094 62.710938 -58.257812 C 65.542969 -55.425781 69.585938 -53.808594 74.039062 -53.808594 C 77.273438 -53.40625 80.511719 -55.023438 82.9375 -57.046875 C 84.960938 -59.472656 86.175781 -62.304688 86.175781 -65.136719 C 85.769531 -70.800781 85.769531 -76.0625 86.175781 -81.320312 C 86.175781 -81.320312 86.582031 -81.726562 86.582031 -82.128906 C 91.839844 -109.640625 122.183594 -146.457031 136.34375 -154.550781 L 136.75 -154.953125 C 137.152344 -154.953125 137.960938 -155.359375 138.769531 -154.550781 C 140.390625 -152.929688 141.199219 -148.480469 137.960938 -140.390625 C 133.105469 -127.441406 117.328125 -67.96875 128.253906 -43.289062 C 132.703125 -31.960938 140.792969 -28.726562 146.457031 -27.917969 C 147.671875 -27.511719 148.886719 -27.511719 150.503906 -27.511719 C 159.40625 -27.511719 169.519531 -32.367188 176.398438 -40.054688 L 176.398438 -40.457031 C 184.488281 -47.742188 193.792969 -60.6875 204.3125 -79.703125 C 205.121094 -80.917969 204.71875 -82.9375 203.503906 -83.75 Z M 203.503906 -83.75 "/></g></g></g><g fill="#8d0000" fill-opacity="1"><g transform="translate(98.495038, 280.326515)"><g><path d="M 203.503906 -83.75 C 201.886719 -84.558594 200.265625 -83.75 199.457031 -82.535156 C 187.320312 -61.496094 178.824219 -50.167969 172.351562 -44.503906 C 172.351562 -44.503906 171.945312 -44.503906 171.945312 -44.097656 C 166.6875 -39.648438 163.449219 -38.839844 161.425781 -39.246094 C 156.167969 -40.054688 152.929688 -48.144531 151.3125 -54.617188 C 146.457031 -74.847656 154.953125 -104.382812 160.617188 -123.800781 C 163.855469 -134.726562 165.472656 -139.984375 165.070312 -142.816406 C 163.449219 -150.097656 156.167969 -161.425781 141.601562 -162.238281 C 130.679688 -163.046875 112.878906 -141.199219 107.617188 -134.726562 C 99.929688 -125.015625 93.863281 -114.902344 89.007812 -105.59375 C 90.222656 -112.472656 91.839844 -118.945312 93.054688 -124.609375 C 95.886719 -136.75 98.3125 -146.054688 96.289062 -154.550781 C 95.078125 -159.40625 89.414062 -164.664062 82.9375 -166.6875 C 77.273438 -168.304688 72.015625 -167.089844 67.96875 -163.046875 C 51.785156 -147.265625 33.984375 -109.640625 23.871094 -78.488281 C 26.703125 -104.785156 32.769531 -128.253906 40.863281 -147.671875 C 43.695312 -154.144531 41.671875 -161.425781 36.007812 -165.472656 L 30.34375 -169.519531 C 28.320312 -171.136719 25.894531 -171.542969 23.0625 -170.734375 C 20.632812 -169.921875 18.609375 -167.902344 17.800781 -165.472656 C 6.878906 -133.511719 -4.449219 -70.398438 -3.640625 -23.871094 C -3.238281 -16.183594 2.023438 -9.304688 9.710938 -7.6875 C 10.519531 -7.28125 11.328125 -7.28125 11.734375 -7.28125 C 14.160156 -7.28125 16.183594 -8.089844 17.800781 -9.304688 C 19.824219 -11.328125 21.039062 -13.753906 21.039062 -16.992188 C 21.039062 -25.082031 21.039062 -33.582031 21.441406 -41.265625 C 23.0625 -67.160156 47.742188 -131.894531 69.992188 -156.574219 L 70.398438 -156.574219 C 70.800781 -157.382812 72.015625 -157.785156 72.417969 -157.382812 C 73.230469 -156.976562 74.441406 -154.144531 72.417969 -147.671875 C 68.777344 -136.75 59.070312 -97.910156 58.257812 -69.585938 C 58.257812 -65.542969 59.878906 -61.496094 62.710938 -58.257812 C 65.542969 -55.425781 69.585938 -53.808594 74.039062 -53.808594 C 77.273438 -53.40625 80.511719 -55.023438 82.9375 -57.046875 C 84.960938 -59.472656 86.175781 -62.304688 86.175781 -65.136719 C 85.769531 -70.800781 85.769531 -76.0625 86.175781 -81.320312 C 86.175781 -81.320312 86.582031 -81.726562 86.582031 -82.128906 C 91.839844 -109.640625 122.183594 -146.457031 136.34375 -154.550781 L 136.75 -154.953125 C 137.152344 -154.953125 137.960938 -155.359375 138.769531 -154.550781 C 140.390625 -152.929688 141.199219 -148.480469 137.960938 -140.390625 C 133.105469 -127.441406 117.328125 -67.96875 128.253906 -43.289062 C 132.703125 -31.960938 140.792969 -28.726562 146.457031 -27.917969 C 147.671875 -27.511719 148.886719 -27.511719 150.503906 -27.511719 C 159.40625 -27.511719 169.519531 -32.367188 176.398438 -40.054688 L 176.398438 -40.457031 C 184.488281 -47.742188 193.792969 -60.6875 204.3125 -79.703125 C 205.121094 -80.917969 204.71875 -82.9375 203.503906 -83.75 Z M 203.503906 -83.75 "/></g></g></g></svg>