<svg xmlns="http://www.w3.org/2000/svg" xmlns:xlink="http://www.w3.org/1999/xlink" width="500" zoomAndPan="magnify" viewBox="0 0 375 374.999991" height="500" preserveAspectRatio="xMidYMid meet" version="1.0"><defs><g/><clipPath id="id1"><path d="M 0 0 L 374.699219 0 L 374.699219 374.699219 L 0 374.699219 Z M 0 0 " clip-rule="nonzero"/></clipPath><clipPath id="id2"><path d="M 166.25 257.714844 L 208.75 257.714844 L 208.75 295.03125 L 166.25 295.03125 Z M 166.25 257.714844 " clip-rule="nonzero"/></clipPath></defs><g clip-path="url(#id1)"><path fill="#053b69" d="M 187.351562 374.699219 C 137.332031 374.699219 90.230469 355.230469 54.886719 319.8125 C 19.46875 284.46875 0 237.371094 0 187.351562 C 0 137.332031 19.46875 90.230469 54.886719 54.886719 C 90.230469 19.46875 137.332031 0 187.351562 0 C 237.371094 0 284.46875 19.46875 319.8125 54.886719 C 355.230469 90.304688 374.699219 137.332031 374.699219 187.351562 C 374.699219 237.371094 355.230469 284.46875 319.8125 319.8125 C 284.46875 355.230469 237.371094 374.699219 187.351562 374.699219 Z M 187.351562 11.230469 C 140.324219 11.230469 96.070312 29.578125 62.824219 62.824219 C 29.578125 96.070312 11.230469 140.324219 11.230469 187.351562 C 11.230469 234.375 29.578125 278.628906 62.824219 311.875 C 96.070312 345.121094 140.324219 363.46875 187.351562 363.46875 C 234.375 363.46875 278.628906 345.121094 311.875 311.875 C 345.121094 278.628906 363.46875 234.375 363.46875 187.351562 C 363.46875 140.324219 345.121094 96.070312 311.875 62.824219 C 278.628906 29.578125 234.375 11.230469 187.351562 11.230469 Z M 187.351562 11.230469 " fill-opacity="1" fill-rule="nonzero"/></g><g fill="#053b69" fill-opacity="0.302"><g transform="translate(105.1593, 279.23468)"><g><path d="M 203.507812 -83.75 C 201.890625 -84.558594 200.269531 -83.75 199.460938 -82.535156 C 187.324219 -61.496094 178.828125 -50.167969 172.355469 -44.503906 C 172.355469 -44.503906 171.949219 -44.503906 171.949219 -44.101562 C 166.691406 -39.648438 163.453125 -38.839844 161.429688 -39.246094 C 156.171875 -40.054688 152.933594 -48.144531 151.316406 -54.621094 C 146.460938 -74.847656 154.957031 -104.382812 160.621094 -123.804688 C 163.859375 -134.726562 165.476562 -139.988281 165.070312 -142.820312 C 163.453125 -150.101562 156.171875 -161.429688 141.605469 -162.238281 C 130.683594 -163.046875 112.878906 -141.199219 107.621094 -134.726562 C 99.933594 -125.015625 93.863281 -114.902344 89.007812 -105.597656 C 90.222656 -112.476562 91.839844 -118.949219 93.054688 -124.613281 C 95.886719 -136.75 98.316406 -146.054688 96.292969 -154.550781 C 95.078125 -159.40625 89.414062 -164.667969 82.941406 -166.691406 C 77.277344 -168.308594 72.015625 -167.09375 67.96875 -163.046875 C 51.789062 -147.269531 33.984375 -109.644531 23.871094 -78.488281 C 26.703125 -104.789062 32.773438 -128.253906 40.863281 -147.675781 C 43.695312 -154.148438 41.671875 -161.429688 36.007812 -165.476562 L 30.34375 -169.523438 C 28.320312 -171.140625 25.894531 -171.546875 23.0625 -170.734375 C 20.632812 -169.925781 18.609375 -167.902344 17.800781 -165.476562 C 6.878906 -133.515625 -4.449219 -70.398438 -3.640625 -23.871094 C -3.238281 -16.183594 2.023438 -9.304688 9.710938 -7.6875 C 10.519531 -7.28125 11.328125 -7.28125 11.734375 -7.28125 C 14.160156 -7.28125 16.183594 -8.089844 17.800781 -9.304688 C 19.824219 -11.328125 21.039062 -13.757812 21.039062 -16.992188 C 21.039062 -25.085938 21.039062 -33.582031 21.441406 -41.269531 C 23.0625 -67.160156 47.742188 -131.894531 69.992188 -156.574219 L 70.398438 -156.574219 C 70.804688 -157.382812 72.015625 -157.789062 72.421875 -157.382812 C 73.230469 -156.980469 74.445312 -154.148438 72.421875 -147.675781 C 68.78125 -136.75 59.070312 -97.910156 58.261719 -69.589844 C 58.261719 -65.542969 59.878906 -61.496094 62.710938 -58.261719 C 65.542969 -55.429688 69.589844 -53.808594 74.039062 -53.808594 C 77.277344 -53.40625 80.511719 -55.023438 82.941406 -57.046875 C 84.964844 -59.472656 86.175781 -62.304688 86.175781 -65.136719 C 85.773438 -70.804688 85.773438 -76.0625 86.175781 -81.320312 C 86.175781 -81.320312 86.582031 -81.726562 86.582031 -82.132812 C 91.839844 -109.644531 122.183594 -146.460938 136.347656 -154.550781 L 136.75 -154.957031 C 137.15625 -154.957031 137.964844 -155.363281 138.773438 -154.550781 C 140.390625 -152.933594 141.199219 -148.484375 137.964844 -140.390625 C 133.109375 -127.445312 117.332031 -67.96875 128.253906 -43.289062 C 132.703125 -31.960938 140.796875 -28.726562 146.460938 -27.917969 C 147.675781 -27.511719 148.886719 -27.511719 150.507812 -27.511719 C 159.40625 -27.511719 169.523438 -32.367188 176.398438 -40.054688 L 176.398438 -40.457031 C 184.492188 -47.742188 193.796875 -60.6875 204.316406 -79.703125 C 205.125 -80.917969 204.722656 -82.941406 203.507812 -83.75 Z M 203.507812 -83.75 "/></g></g></g><g fill="#053b69" fill-opacity="0.502"><g transform="translate(102.298431, 276.373803)"><g><path d="M 203.507812 -83.75 C 201.890625 -84.558594 200.269531 -83.75 199.460938 -82.535156 C 187.324219 -61.496094 178.828125 -50.167969 172.355469 -44.503906 C 172.355469 -44.503906 171.949219 -44.503906 171.949219 -44.101562 C 166.691406 -39.648438 163.453125 -38.839844 161.429688 -39.246094 C 156.171875 -40.054688 152.933594 -48.144531 151.316406 -54.621094 C 146.460938 -74.847656 154.957031 -104.382812 160.621094 -123.804688 C 163.859375 -134.726562 165.476562 -139.988281 165.070312 -142.820312 C 163.453125 -150.101562 156.171875 -161.429688 141.605469 -162.238281 C 130.683594 -163.046875 112.878906 -141.199219 107.621094 -134.726562 C 99.933594 -125.015625 93.863281 -114.902344 89.007812 -105.597656 C 90.222656 -112.476562 91.839844 -118.949219 93.054688 -124.613281 C 95.886719 -136.75 98.316406 -146.054688 96.292969 -154.550781 C 95.078125 -159.40625 89.414062 -164.667969 82.941406 -166.691406 C 77.277344 -168.308594 72.015625 -167.09375 67.96875 -163.046875 C 51.789062 -147.269531 33.984375 -109.644531 23.871094 -78.488281 C 26.703125 -104.789062 32.773438 -128.253906 40.863281 -147.675781 C 43.695312 -154.148438 41.671875 -161.429688 36.007812 -165.476562 L 30.34375 -169.523438 C 28.320312 -171.140625 25.894531 -171.546875 23.0625 -170.734375 C 20.632812 -169.925781 18.609375 -167.902344 17.800781 -165.476562 C 6.878906 -133.515625 -4.449219 -70.398438 -3.640625 -23.871094 C -3.238281 -16.183594 2.023438 -9.304688 9.710938 -7.6875 C 10.519531 -7.28125 11.328125 -7.28125 11.734375 -7.28125 C 14.160156 -7.28125 16.183594 -8.089844 17.800781 -9.304688 C 19.824219 -11.328125 21.039062 -13.757812 21.039062 -16.992188 C 21.039062 -25.085938 21.039062 -33.582031 21.441406 -41.269531 C 23.0625 -67.160156 47.742188 -131.894531 69.992188 -156.574219 L 70.398438 -156.574219 C 70.804688 -157.382812 72.015625 -157.789062 72.421875 -157.382812 C 73.230469 -156.980469 74.445312 -154.148438 72.421875 -147.675781 C 68.78125 -136.75 59.070312 -97.910156 58.261719 -69.589844 C 58.261719 -65.542969 59.878906 -61.496094 62.710938 -58.261719 C 65.542969 -55.429688 69.589844 -53.808594 74.039062 -53.808594 C 77.277344 -53.40625 80.511719 -55.023438 82.941406 -57.046875 C 84.964844 -59.472656 86.175781 -62.304688 86.175781 -65.136719 C 85.773438 -70.804688 85.773438 -76.0625 86.175781 -81.320312 C 86.175781 -81.320312 86.582031 -81.726562 86.582031 -82.132812 C 91.839844 -109.644531 122.183594 -146.460938 136.347656 -154.550781 L 136.75 -154.957031 C 137.15625 -154.957031 137.964844 -155.363281 138.773438 -154.550781 C 140.390625 -152.933594 141.199219 -148.484375 137.964844 -140.390625 C 133.109375 -127.445312 117.332031 -67.96875 128.253906 -43.289062 C 132.703125 -31.960938 140.796875 -28.726562 146.460938 -27.917969 C 147.675781 -27.511719 148.886719 -27.511719 150.507812 -27.511719 C 159.40625 -27.511719 169.523438 -32.367188 176.398438 -40.054688 L 176.398438 -40.457031 C 184.492188 -47.742188 193.796875 -60.6875 204.316406 -79.703125 C 205.125 -80.917969 204.722656 -82.941406 203.507812 -83.75 Z M 203.507812 -83.75 "/></g></g></g><g fill="#053b69" fill-opacity="1"><g transform="translate(99.437561, 273.512934)"><g><path d="M 203.507812 -83.75 C 201.890625 -84.558594 200.269531 -83.75 199.460938 -82.535156 C 187.324219 -61.496094 178.828125 -50.167969 172.355469 -44.503906 C 172.355469 -44.503906 171.949219 -44.503906 171.949219 -44.101562 C 166.691406 -39.648438 163.453125 -38.839844 161.429688 -39.246094 C 156.171875 -40.054688 152.933594 -48.144531 151.316406 -54.621094 C 146.460938 -74.847656 154.957031 -104.382812 160.621094 -123.804688 C 163.859375 -134.726562 165.476562 -139.988281 165.070312 -142.820312 C 163.453125 -150.101562 156.171875 -161.429688 141.605469 -162.238281 C 130.683594 -163.046875 112.878906 -141.199219 107.621094 -134.726562 C 99.933594 -125.015625 93.863281 -114.902344 89.007812 -105.597656 C 90.222656 -112.476562 91.839844 -118.949219 93.054688 -124.613281 C 95.886719 -136.75 98.316406 -146.054688 96.292969 -154.550781 C 95.078125 -159.40625 89.414062 -164.667969 82.941406 -166.691406 C 77.277344 -168.308594 72.015625 -167.09375 67.96875 -163.046875 C 51.789062 -147.269531 33.984375 -109.644531 23.871094 -78.488281 C 26.703125 -104.789062 32.773438 -128.253906 40.863281 -147.675781 C 43.695312 -154.148438 41.671875 -161.429688 36.007812 -165.476562 L 30.34375 -169.523438 C 28.320312 -171.140625 25.894531 -171.546875 23.0625 -170.734375 C 20.632812 -169.925781 18.609375 -167.902344 17.800781 -165.476562 C 6.878906 -133.515625 -4.449219 -70.398438 -3.640625 -23.871094 C -3.238281 -16.183594 2.023438 -9.304688 9.710938 -7.6875 C 10.519531 -7.28125 11.328125 -7.28125 11.734375 -7.28125 C 14.160156 -7.28125 16.183594 -8.089844 17.800781 -9.304688 C 19.824219 -11.328125 21.039062 -13.757812 21.039062 -16.992188 C 21.039062 -25.085938 21.039062 -33.582031 21.441406 -41.269531 C 23.0625 -67.160156 47.742188 -131.894531 69.992188 -156.574219 L 70.398438 -156.574219 C 70.804688 -157.382812 72.015625 -157.789062 72.421875 -157.382812 C 73.230469 -156.980469 74.445312 -154.148438 72.421875 -147.675781 C 68.78125 -136.75 59.070312 -97.910156 58.261719 -69.589844 C 58.261719 -65.542969 59.878906 -61.496094 62.710938 -58.261719 C 65.542969 -55.429688 69.589844 -53.808594 74.039062 -53.808594 C 77.277344 -53.40625 80.511719 -55.023438 82.941406 -57.046875 C 84.964844 -59.472656 86.175781 -62.304688 86.175781 -65.136719 C 85.773438 -70.804688 85.773438 -76.0625 86.175781 -81.320312 C 86.175781 -81.320312 86.582031 -81.726562 86.582031 -82.132812 C 91.839844 -109.644531 122.183594 -146.460938 136.347656 -154.550781 L 136.75 -154.957031 C 137.15625 -154.957031 137.964844 -155.363281 138.773438 -154.550781 C 140.390625 -152.933594 141.199219 -148.484375 137.964844 -140.390625 C 133.109375 -127.445312 117.332031 -67.96875 128.253906 -43.289062 C 132.703125 -31.960938 140.796875 -28.726562 146.460938 -27.917969 C 147.675781 -27.511719 148.886719 -27.511719 150.507812 -27.511719 C 159.40625 -27.511719 169.523438 -32.367188 176.398438 -40.054688 L 176.398438 -40.457031 C 184.492188 -47.742188 193.796875 -60.6875 204.316406 -79.703125 C 205.125 -80.917969 204.722656 -82.941406 203.507812 -83.75 Z M 203.507812 -83.75 "/></g></g></g><g clip-path="url(#id2)"><path fill="#053b69" d="M 166.25 268.722656 C 166.25 280.574219 187.5 295.03125 187.5 295.03125 C 187.5 295.03125 208.65625 280.472656 208.75 268.722656 C 208.75 262.65625 203.8125 257.714844 197.75 257.714844 C 193.09375 257.714844 189.082031 260.703125 187.5 264.800781 C 185.917969 260.703125 181.90625 257.714844 177.25 257.714844 C 171.1875 257.714844 166.25 262.65625 166.25 268.722656 " fill-opacity="1" fill-rule="nonzero"/></g></svg>