<svg xmlns="http://www.w3.org/2000/svg" xmlns:xlink="http://www.w3.org/1999/xlink" width="1280" zoomAndPan="magnify" viewBox="0 0 960 540.000001" height="720" preserveAspectRatio="xMidYMid meet" version="1.0"><defs><clipPath id="id1"><path d="M 0.886719 0 L 959.113281 0 L 959.113281 539 L 0.886719 539 Z M 0.886719 0 " clip-rule="nonzero"/></clipPath><clipPath id="id2"><path d="M 0.886719 0 L 539.890625 0 L 539.890625 539 L 0.886719 539 Z M 0.886719 0 " clip-rule="nonzero"/></clipPath><clipPath id="id3"><path d="M 0.886719 20 L 433 20 L 433 444 L 0.886719 444 Z M 0.886719 20 " clip-rule="nonzero"/></clipPath><clipPath id="id4"><path d="M 0.886719 14 L 507 14 L 507 539 L 0.886719 539 Z M 0.886719 14 " clip-rule="nonzero"/></clipPath></defs><g clip-path="url(#id1)"><path fill="#ffffff" d="M 0.886719 0 L 959.113281 0 L 959.113281 546.488281 L 0.886719 546.488281 Z M 0.886719 0 " fill-opacity="1" fill-rule="nonzero"/><path fill="#6d79bf" d="M 0.886719 0 L 959.113281 0 L 959.113281 539 L 0.886719 539 Z M 0.886719 0 " fill-opacity="1" fill-rule="nonzero"/><path fill="#ffffff" d="M 0.886719 0 L 959.113281 0 L 959.113281 539 L 0.886719 539 Z M 0.886719 0 " fill-opacity="1" fill-rule="nonzero"/><path fill="#6d79bf" d="M 0.886719 0 L 959.113281 0 L 959.113281 539 L 0.886719 539 Z M 0.886719 0 " fill-opacity="1" fill-rule="nonzero"/></g><g clip-path="url(#id2)"><path fill="#6d79bf" d="M 0.886719 0 L 539.890625 0 L 539.890625 539 L 0.886719 539 Z M 0.886719 0 " fill-opacity="1" fill-rule="nonzero"/></g><g clip-path="url(#id3)"><path fill="#fbecef" d="M 39.300781 140.125 C 40.792969 141.132812 42.0625 141.980469 43.078125 142.652344 C 42.066406 141.980469 40.792969 141.132812 39.300781 140.125 Z M 43.210938 142.742188 C 43.496094 142.929688 43.757812 143.105469 43.996094 143.261719 C 43.757812 143.105469 43.496094 142.929688 43.210938 142.742188 Z M 45.734375 144.402344 C 45.761719 144.421875 45.804688 144.445312 45.804688 144.445312 C 45.804688 144.445312 45.78125 144.433594 45.734375 144.402344 Z M 0.886719 112.199219 L 0.886719 112.207031 C 15.785156 123.972656 30.9375 134.480469 39.277344 140.109375 C 30.933594 134.476562 15.777344 123.960938 0.886719 112.199219 Z M 45.644531 144.34375 C 45.585938 144.304688 45.507812 144.253906 45.414062 144.195312 C 45.507812 144.257812 45.585938 144.304688 45.644531 144.34375 Z M 45.324219 144.132812 C 45.039062 143.949219 44.632812 143.679688 44.109375 143.335938 C 44.636719 143.683594 45.039062 143.949219 45.324219 144.132812 Z M 62.238281 133.492188 C 62.238281 133.492188 61.328125 144.449219 75.9375 149.011719 C 90.546875 153.578125 103.332031 148.101562 103.332031 148.101562 C 103.332031 148.101562 103.332031 166.363281 124.332031 170.929688 C 142.453125 174.867188 158.421875 157.839844 158.421875 157.839844 C 158.421875 157.839844 169.101562 179.613281 186.425781 188.277344 C 202.859375 196.496094 218.195312 190.125 218.195312 190.125 C 218.195312 190.125 256.039062 201.769531 260.890625 180.421875 C 265.742188 159.074219 225.957031 144.519531 225.957031 144.519531 C 225.957031 144.519531 253.128906 124.140625 239.542969 100.851562 C 225.957031 77.566406 202.671875 87.269531 202.671875 87.269531 C 202.671875 87.269531 208.492188 65.917969 195.878906 61.066406 C 183.261719 56.214844 174.53125 66.890625 174.53125 66.890625 C 174.53125 66.890625 168.707031 15.460938 123.101562 21.285156 C 77.496094 27.105469 79.4375 83.386719 79.4375 83.386719 C 79.4375 83.386719 58.089844 55.246094 42.5625 57.1875 C 32.808594 58.40625 27.269531 69.203125 24.496094 77.0625 C 24.285156 77.660156 24.09375 78.234375 23.914062 78.792969 C 22.699219 82.574219 22.1875 85.328125 22.1875 85.328125 C 22.1875 85.328125 12.585938 78.867188 0.886719 72.328125 L 0.886719 104.714844 Z M 23.996094 307.367188 C 23.355469 306.890625 22.71875 306.410156 22.085938 305.933594 C 22.722656 306.410156 23.355469 306.890625 23.996094 307.367188 Z M 25.0625 308.15625 C 25.765625 308.675781 26.464844 309.195312 27.167969 309.710938 C 26.464844 309.195312 25.765625 308.675781 25.0625 308.15625 Z M 18.996094 303.597656 C 19.605469 304.0625 20.21875 304.527344 20.828125 304.988281 C 20.214844 304.527344 19.605469 304.0625 18.996094 303.597656 Z M 32.648438 313.683594 C 30.84375 312.390625 29.042969 311.085938 27.242188 309.765625 C 29.042969 311.085938 30.84375 312.390625 32.648438 313.683594 Z M 14.5625 300.179688 C 13.96875 299.71875 13.378906 299.253906 12.789062 298.792969 C 13.378906 299.253906 13.96875 299.71875 14.5625 300.179688 Z M 8.398438 295.292969 C 7.820312 294.828125 7.242188 294.359375 6.667969 293.890625 C 7.242188 294.359375 7.820312 294.828125 8.398438 295.292969 Z M 9.714844 296.355469 C 10.296875 296.820312 10.878906 297.285156 11.464844 297.746094 C 10.878906 297.285156 10.296875 296.820312 9.714844 296.355469 Z M 17.679688 302.59375 C 17.082031 302.136719 16.484375 301.671875 15.890625 301.210938 C 16.484375 301.671875 17.082031 302.132812 17.679688 302.59375 Z M 35.324219 315.59375 C 34.65625 315.117188 33.984375 314.644531 33.316406 314.164062 C 33.984375 314.644531 34.65625 315.117188 35.324219 315.59375 Z M 62.863281 334.226562 C 62.261719 333.835938 61.648438 333.4375 61.039062 333.042969 C 61.648438 333.4375 62.261719 333.835938 62.863281 334.226562 Z M 55.183594 329.199219 C 55.761719 329.582031 56.339844 329.964844 56.910156 330.339844 C 56.339844 329.964844 55.761719 329.582031 55.183594 329.199219 Z M 36.492188 316.421875 C 37.128906 316.875 37.765625 317.320312 38.40625 317.765625 C 37.765625 317.320312 37.128906 316.875 36.492188 316.421875 Z M 3.660156 291.414062 C 4.226562 291.886719 4.800781 292.359375 5.371094 292.828125 C 4.800781 292.359375 4.226562 291.886719 3.660156 291.414062 Z M 53.890625 328.339844 C 53.3125 327.957031 52.730469 327.566406 52.148438 327.179688 C 52.730469 327.566406 53.3125 327.957031 53.890625 328.339844 Z M 59.917969 332.3125 C 59.339844 331.9375 58.757812 331.550781 58.171875 331.167969 C 58.757812 331.550781 59.339844 331.933594 59.917969 332.3125 Z M 39.65625 318.644531 C 40.28125 319.082031 40.90625 319.515625 41.527344 319.945312 C 40.902344 319.515625 40.28125 319.082031 39.65625 318.644531 Z M 42.808594 320.832031 C 43.417969 321.253906 44.027344 321.675781 44.636719 322.089844 C 44.027344 321.671875 43.417969 321.253906 42.808594 320.832031 Z M 49.050781 325.097656 C 49.644531 325.496094 50.234375 325.894531 50.824219 326.289062 C 50.234375 325.894531 49.644531 325.496094 49.050781 325.097656 Z M 47.75 324.214844 C 47.152344 323.808594 46.550781 323.398438 45.945312 322.988281 C 46.550781 323.398438 47.152344 323.808594 47.75 324.214844 Z M 63.800781 334.828125 C 66.03125 336.265625 68.214844 337.660156 70.34375 339.007812 C 68.214844 337.660156 66.03125 336.265625 63.800781 334.828125 Z M 104.90625 359.789062 C 104.757812 359.707031 104.601562 359.617188 104.445312 359.527344 C 104.605469 359.617188 104.757812 359.703125 104.90625 359.789062 Z M 103.335938 358.898438 C 103.503906 358.992188 103.664062 359.085938 103.824219 359.175781 C 103.664062 359.082031 103.503906 358.992188 103.335938 358.898438 Z M 105.8125 360.304688 C 105.679688 360.226562 105.535156 360.144531 105.386719 360.0625 C 105.535156 360.144531 105.679688 360.226562 105.8125 360.304688 Z M 106.546875 360.714844 C 106.441406 360.65625 106.320312 360.585938 106.199219 360.519531 C 106.320312 360.589844 106.4375 360.65625 106.546875 360.714844 Z M 99.144531 356.480469 C 99.410156 356.636719 99.660156 356.78125 99.914062 356.929688 C 99.660156 356.78125 99.410156 356.636719 99.144531 356.480469 Z M 97.496094 355.523438 C 97.761719 355.679688 98.011719 355.824219 98.273438 355.976562 C 98.011719 355.824219 97.761719 355.679688 97.496094 355.523438 Z M 106.9375 360.933594 C 106.992188 360.964844 107.054688 361 107.105469 361.027344 C 107.054688 361 106.992188 360.964844 106.9375 360.933594 Z M 102.675781 358.519531 C 102.464844 358.398438 102.257812 358.277344 102.035156 358.152344 C 102.257812 358.277344 102.464844 358.398438 102.675781 358.519531 Z M 101.398438 357.785156 C 101.152344 357.644531 100.910156 357.503906 100.648438 357.355469 C 100.910156 357.503906 101.152344 357.644531 101.398438 357.785156 Z M 0.886719 289.089844 C 1.386719 289.515625 1.890625 289.933594 2.390625 290.355469 C 1.890625 289.933594 1.386719 289.511719 0.886719 289.089844 Z M 282.742188 427.625 C 282.144531 427.34375 281.558594 427.0625 280.984375 426.777344 C 281.5625 427.0625 282.144531 427.34375 282.742188 427.625 Z M 280.453125 426.511719 C 280.050781 426.308594 279.652344 426.105469 279.257812 425.902344 C 279.652344 426.105469 280.050781 426.308594 280.453125 426.511719 Z M 282.753906 427.632812 C 283.351562 427.914062 283.964844 428.195312 284.585938 428.476562 C 283.964844 428.195312 283.351562 427.914062 282.753906 427.632812 Z M 152.640625 373.339844 C 172.832031 384.410156 203.164062 379.425781 203.164062 379.425781 C 203.164062 379.425781 213.964844 401.972656 237.863281 410.777344 C 260.996094 419.300781 268.605469 405.601562 268.605469 405.601562 C 268.605469 405.601562 303.226562 431.1875 348.546875 443.417969 C 347.890625 443.417969 347.226562 443.40625 346.550781 443.386719 C 361.292969 443.761719 372.519531 440.621094 374.148438 431.976562 C 378.292969 409.980469 339.222656 395.558594 339.222656 395.558594 C 339.222656 395.558594 350.179688 383.382812 336.671875 365.140625 C 320.847656 343.769531 292.882812 351.835938 292.882812 351.835938 C 292.882812 351.835938 301.632812 340.074219 291.925781 317.21875 C 282.214844 294.363281 254.34375 303.871094 254.34375 303.871094 C 254.34375 303.871094 254.285156 261.609375 217.898438 248.011719 C 206.894531 243.902344 197 245.136719 188.546875 248.855469 C 188.023438 249.085938 187.503906 249.324219 186.992188 249.574219 C 168.421875 258.585938 157.226562 279.238281 157.226562 279.238281 C 157.226562 279.238281 147.628906 264.554688 132.734375 255.839844 C 131.671875 255.21875 130.585938 254.628906 129.46875 254.078125 C 121.539062 250.136719 112.320312 248.117188 102.378906 250.707031 C 101.84375 250.847656 101.304688 251 100.765625 251.167969 C 99.101562 251.679688 97.417969 252.320312 95.71875 253.109375 C 78.257812 261.214844 76.238281 278.675781 76.238281 278.675781 C 76.238281 278.675781 35.074219 254.828125 0.886719 239.765625 L 0.886719 269.992188 C 47.042969 294.742188 107.359375 326.582031 129.8125 336.203125 C 129.8125 336.207031 133.769531 362.988281 152.640625 373.339844 Z M 92.90625 352.824219 C 93.25 353.027344 93.59375 353.230469 93.925781 353.429688 C 93.59375 353.230469 93.25 353.027344 92.90625 352.824219 Z M 107.554688 361.277344 C 107.519531 361.257812 107.46875 361.230469 107.429688 361.207031 C 107.472656 361.234375 107.515625 361.257812 107.554688 361.277344 Z M 278.675781 425.597656 C 278.289062 425.394531 277.910156 425.191406 277.53125 424.984375 C 277.910156 425.191406 278.289062 425.394531 278.675781 425.597656 Z M 275.476562 423.832031 C 275.980469 424.125 276.503906 424.417969 277.03125 424.710938 C 276.503906 424.417969 275.980469 424.125 275.476562 423.832031 Z M 96.398438 354.882812 C 95.898438 354.589844 95.386719 354.289062 94.859375 353.976562 C 95.386719 354.285156 95.898438 354.589844 96.398438 354.882812 Z M 76.609375 342.9375 C 77.105469 343.246094 77.597656 343.546875 78.085938 343.851562 C 77.597656 343.546875 77.105469 343.246094 76.609375 342.9375 Z M 332.847656 442.203125 C 333.382812 442.277344 333.917969 442.351562 334.449219 442.417969 C 333.917969 442.351562 333.382812 442.277344 332.847656 442.203125 Z M 335.179688 442.511719 C 335.707031 442.574219 336.234375 442.636719 336.757812 442.695312 C 336.234375 442.636719 335.707031 442.574219 335.179688 442.511719 Z M 322.988281 440.523438 C 323.535156 440.636719 324.082031 440.742188 324.628906 440.847656 C 324.085938 440.742188 323.535156 440.636719 322.988281 440.523438 Z M 341.691406 443.148438 C 340.28125 443.046875 338.851562 442.921875 337.398438 442.765625 C 338.847656 442.921875 340.28125 443.046875 341.691406 443.148438 Z M 325.394531 440.988281 C 325.941406 441.089844 326.488281 441.191406 327.03125 441.285156 C 326.488281 441.191406 325.941406 441.09375 325.394531 440.988281 Z M 327.691406 441.402344 C 329.207031 441.664062 330.714844 441.902344 332.207031 442.117188 C 330.714844 441.902344 329.207031 441.664062 327.691406 441.402344 Z M 343.800781 443.28125 C 343.304688 443.253906 342.804688 443.222656 342.300781 443.191406 C 342.804688 443.222656 343.304688 443.253906 343.800781 443.28125 Z M 345.953125 443.371094 C 345.46875 443.355469 344.984375 443.335938 344.492188 443.3125 C 344.984375 443.335938 345.46875 443.355469 345.953125 443.371094 Z M 84.128906 347.554688 C 84.558594 347.816406 84.988281 348.078125 85.410156 348.335938 C 84.988281 348.078125 84.558594 347.816406 84.128906 347.554688 Z M 86.460938 348.96875 C 86.871094 349.214844 87.28125 349.464844 87.683594 349.703125 C 87.28125 349.464844 86.871094 349.214844 86.460938 348.96875 Z M 91.949219 352.257812 C 91.585938 352.039062 91.207031 351.8125 90.832031 351.589844 C 91.207031 351.8125 91.585938 352.039062 91.949219 352.257812 Z M 88.691406 350.3125 C 89.089844 350.550781 89.492188 350.792969 89.878906 351.023438 C 89.492188 350.789062 89.089844 350.550781 88.691406 350.3125 Z M 317.046875 439.234375 C 316.5 439.105469 315.960938 438.976562 315.417969 438.84375 C 315.960938 438.976562 316.5 439.109375 317.046875 439.234375 Z M 293.175781 432.019531 C 292.488281 431.761719 291.804688 431.5 291.132812 431.234375 C 291.804688 431.5 292.488281 431.761719 293.175781 432.019531 Z M 293.820312 432.261719 C 294.308594 432.441406 294.796875 432.621094 295.289062 432.800781 C 294.796875 432.621094 294.308594 432.441406 293.820312 432.261719 Z M 317.734375 439.394531 C 319.265625 439.746094 320.796875 440.082031 322.328125 440.390625 C 320.796875 440.078125 319.265625 439.746094 317.734375 439.394531 Z M 289.136719 430.433594 C 289.789062 430.699219 290.449219 430.964844 291.117188 431.226562 C 290.449219 430.964844 289.789062 430.699219 289.136719 430.433594 Z M 298.167969 433.816406 C 299.601562 434.308594 301.050781 434.785156 302.519531 435.25 C 301.050781 434.785156 299.601562 434.308594 298.167969 433.816406 Z M 287.164062 429.609375 C 287.613281 429.800781 288.070312 429.992188 288.527344 430.179688 C 288.070312 429.992188 287.613281 429.800781 287.164062 429.609375 Z M 297.515625 433.589844 C 297.007812 433.414062 296.507812 433.238281 296.007812 433.058594 C 296.507812 433.238281 297.007812 433.414062 297.515625 433.589844 Z M 313.011719 438.246094 C 313.554688 438.386719 314.097656 438.523438 314.640625 438.65625 C 314.097656 438.519531 313.554688 438.386719 313.011719 438.246094 Z M 304.765625 435.941406 C 304.238281 435.78125 303.714844 435.621094 303.195312 435.460938 C 303.714844 435.621094 304.238281 435.785156 304.765625 435.941406 Z M 81.710938 346.082031 C 82.15625 346.355469 82.597656 346.625 83.035156 346.890625 C 82.597656 346.625 82.15625 346.355469 81.710938 346.082031 Z M 307.800781 436.835938 C 309.304688 437.265625 310.816406 437.675781 312.335938 438.074219 C 310.816406 437.679688 309.300781 437.265625 307.800781 436.835938 Z M 305.527344 436.171875 C 306.050781 436.328125 306.578125 436.484375 307.105469 436.636719 C 306.578125 436.484375 306.050781 436.328125 305.527344 436.171875 Z M 73.949219 341.277344 C 74.460938 341.597656 74.960938 341.910156 75.464844 342.222656 C 74.960938 341.910156 74.460938 341.597656 73.949219 341.277344 Z M 285.171875 428.738281 C 285.605469 428.933594 286.046875 429.125 286.492188 429.316406 C 286.046875 429.125 285.609375 428.933594 285.171875 428.738281 Z M 71.207031 339.554688 C 71.769531 339.910156 72.320312 340.257812 72.878906 340.605469 C 72.324219 340.253906 71.769531 339.910156 71.207031 339.554688 Z M 80.585938 345.390625 C 80.121094 345.105469 79.65625 344.820312 79.183594 344.527344 C 79.65625 344.820312 80.121094 345.105469 80.585938 345.390625 Z M 311.382812 255.589844 C 311.691406 255.945312 311.996094 256.300781 312.3125 256.65625 C 312 256.300781 311.691406 255.945312 311.382812 255.589844 Z M 313.570312 258.066406 C 313.199219 257.65625 312.828125 257.242188 312.464844 256.832031 C 312.828125 257.242188 313.199219 257.65625 313.570312 258.066406 Z M 314.722656 259.316406 C 314.398438 258.964844 314.074219 258.617188 313.753906 258.265625 C 314.074219 258.617188 314.394531 258.96875 314.722656 259.316406 Z M 318.667969 263.40625 C 319.058594 263.796875 319.449219 264.183594 319.839844 264.566406 C 319.449219 264.183594 319.058594 263.796875 318.667969 263.40625 Z M 317.5 262.226562 C 317.84375 262.574219 318.1875 262.921875 318.53125 263.269531 C 318.1875 262.921875 317.84375 262.574219 317.5 262.226562 Z M 314.949219 259.5625 C 315.710938 260.375 316.476562 261.175781 317.25 261.96875 C 316.476562 261.175781 315.710938 260.375 314.949219 259.5625 Z M 306.023438 248.632812 C 305.757812 248.234375 305.496094 247.835938 305.25 247.441406 C 305.496094 247.835938 305.757812 248.234375 306.023438 248.632812 Z M 349.773438 275.835938 C 349.773438 275.835938 354.238281 284.765625 359.515625 288.824219 C 364.789062 292.882812 372.5 292.070312 372.5 292.070312 C 372.5 292.070312 376.964844 306.679688 389.953125 310.738281 C 402.9375 314.796875 408.621094 312.769531 408.621094 312.769531 C 408.621094 312.769531 433.878906 310.734375 432.96875 295.722656 C 432.160156 282.332031 411.054688 278.679688 411.054688 278.679688 C 411.054688 278.679688 414.300781 260.414062 399.285156 252.703125 C 384.269531 244.992188 371.6875 260.414062 371.6875 260.414062 C 371.6875 260.414062 316.089844 223.890625 303.914062 233.628906 C 300.308594 236.515625 301.617188 241.648438 305.25 247.441406 C 313.511719 253.402344 335.234375 268.730469 349.773438 275.835938 Z M 308.09375 251.527344 C 308.359375 251.878906 308.628906 252.226562 308.90625 252.578125 C 308.628906 252.226562 308.359375 251.875 308.09375 251.527344 Z M 307.953125 251.339844 C 307.648438 250.933594 307.347656 250.527344 307.058594 250.125 C 307.347656 250.527344 307.644531 250.933594 307.953125 251.339844 Z M 309.128906 252.859375 C 309.777344 253.675781 310.453125 254.496094 311.152344 255.316406 C 310.453125 254.496094 309.777344 253.675781 309.128906 252.859375 Z M 306.210938 248.90625 C 306.4375 249.242188 306.667969 249.578125 306.910156 249.914062 C 306.667969 249.578125 306.433594 249.242188 306.210938 248.90625 Z M 334.574219 277.863281 C 334.433594 277.746094 334.285156 277.621094 334.117188 277.480469 C 334.285156 277.621094 334.433594 277.746094 334.574219 277.863281 Z M 332.914062 276.472656 C 333.09375 276.621094 333.265625 276.765625 333.425781 276.902344 C 333.265625 276.765625 333.09375 276.621094 332.914062 276.472656 Z M 333.589844 277.039062 C 333.769531 277.191406 333.941406 277.335938 334.101562 277.46875 C 333.941406 277.335938 333.769531 277.191406 333.589844 277.039062 Z M 332.097656 275.777344 C 332.335938 275.980469 332.570312 276.179688 332.789062 276.363281 C 332.570312 276.179688 332.335938 275.980469 332.097656 275.777344 Z M 335.570312 278.679688 C 335.570312 278.679688 335.546875 278.660156 335.53125 278.648438 C 335.554688 278.667969 335.570312 278.679688 335.570312 278.679688 Z M 331.304688 275.097656 C 331.527344 275.285156 331.742188 275.472656 331.949219 275.648438 C 331.742188 275.472656 331.527344 275.285156 331.304688 275.097656 Z M 320.03125 264.753906 C 320.359375 265.082031 320.691406 265.402344 321.023438 265.722656 C 320.691406 265.402344 320.363281 265.082031 320.03125 264.753906 Z M 335.351562 278.5 C 335.410156 278.546875 335.457031 278.585938 335.492188 278.617188 C 335.457031 278.585938 335.414062 278.546875 335.351562 278.5 Z M 335.316406 278.472656 C 335.246094 278.414062 335.15625 278.339844 335.054688 278.257812 C 335.15625 278.339844 335.242188 278.414062 335.316406 278.472656 Z M 334.691406 277.960938 C 334.792969 278.042969 334.882812 278.117188 334.964844 278.183594 C 334.882812 278.117188 334.792969 278.039062 334.691406 277.960938 Z M 323.773438 268.339844 C 324.113281 268.660156 324.453125 268.976562 324.789062 269.285156 C 324.453125 268.976562 324.113281 268.660156 323.773438 268.339844 Z M 325.949219 270.347656 C 325.59375 270.023438 325.230469 269.691406 324.863281 269.355469 C 325.234375 269.695312 325.59375 270.023438 325.949219 270.347656 Z M 322.414062 267.058594 C 322.785156 267.414062 323.15625 267.761719 323.527344 268.105469 C 323.15625 267.761719 322.785156 267.414062 322.414062 267.058594 Z M 322.410156 267.054688 C 322.027344 266.691406 321.644531 266.320312 321.257812 265.949219 C 321.644531 266.324219 322.027344 266.691406 322.410156 267.054688 Z M 327.230469 271.511719 C 327.570312 271.816406 327.90625 272.113281 328.234375 272.40625 C 327.90625 272.113281 327.570312 271.816406 327.230469 271.511719 Z M 330.253906 274.1875 C 329.976562 273.945312 329.6875 273.691406 329.394531 273.429688 C 329.6875 273.691406 329.976562 273.945312 330.253906 274.1875 Z M 329.191406 273.253906 C 328.902344 273 328.609375 272.742188 328.308594 272.476562 C 328.609375 272.742188 328.902344 273 329.191406 273.253906 Z M 330.277344 274.207031 C 330.570312 274.464844 330.855469 274.707031 331.128906 274.945312 C 330.855469 274.707031 330.570312 274.464844 330.277344 274.207031 Z M 326.15625 270.539062 C 326.453125 270.808594 326.746094 271.074219 327.035156 271.332031 C 326.746094 271.074219 326.453125 270.808594 326.15625 270.539062 Z M 326.15625 270.539062 " fill-opacity="1" fill-rule="nonzero"/></g><g clip-path="url(#id4)"><path fill="#f3c9cb" d="M 92.15625 233.726562 C 95.527344 239.328125 98.9375 244.996094 102.378906 250.707031 C 101.84375 250.847656 101.304688 251 100.765625 251.167969 C 97.402344 245.578125 94.070312 240.042969 90.769531 234.558594 Z M 196.082031 406.714844 C 196.082031 406.714844 195.644531 406.941406 194.820312 407.296875 C 223.929688 455.59375 251.523438 501.363281 274.222656 539 L 276.109375 539 C 255.894531 505.476562 231.746094 465.425781 206.082031 422.84375 C 198.070312 414.808594 196.082031 406.714844 196.082031 406.714844 Z M 70.933594 198.460938 L 69.546875 199.296875 L 75.265625 208.796875 L 76.652344 207.964844 Z M 316.609375 513.722656 L 334.828125 539 L 336.820312 539 L 317.917969 512.777344 Z M 299.601562 490.125 L 305.355469 498.109375 L 306.667969 497.164062 L 300.914062 489.179688 Z M 72.128906 174.515625 L 129.472656 254.078125 C 130.585938 254.628906 131.675781 255.21875 132.734375 255.839844 L 73.902344 174.207031 C 73.320312 174.320312 72.730469 174.421875 72.128906 174.515625 Z M 282.636719 466.589844 L 283.949219 465.644531 L 262.921875 436.46875 C 262.402344 436.652344 261.863281 436.824219 261.304688 436.988281 Z M 443.875 518.578125 L 463.375 539 L 465.609375 539 L 445.042969 517.464844 Z M 421.5625 495.214844 L 430.480469 504.550781 L 431.648438 503.4375 L 422.730469 494.101562 Z M 390.640625 462.832031 L 400.152344 472.792969 L 401.320312 471.675781 L 391.808594 461.71875 Z M 186.996094 249.574219 C 187.503906 249.324219 188.023438 249.085938 188.546875 248.855469 L 133.589844 191.304688 C 133.003906 191.46875 132.40625 191.621094 131.792969 191.765625 Z M 24.496094 77.0625 L 0.886719 52.335938 L 0.886719 54.679688 L 23.914062 78.792969 C 24.09375 78.234375 24.285156 77.660156 24.496094 77.0625 Z M 39.300781 140.125 C 40.792969 141.132812 42.0625 141.980469 43.078125 142.652344 C 43.125 142.683594 43.167969 142.710938 43.210938 142.742188 C 43.496094 142.929688 43.757812 143.101562 43.996094 143.261719 C 44.035156 143.285156 44.074219 143.3125 44.109375 143.335938 C 44.632812 143.679688 45.039062 143.945312 45.324219 144.132812 C 45.359375 144.15625 45.382812 144.171875 45.414062 144.191406 C 45.507812 144.253906 45.585938 144.304688 45.644531 144.34375 C 45.691406 144.371094 45.710938 144.386719 45.734375 144.402344 C 45.761719 144.421875 45.804688 144.445312 45.804688 144.445312 C 45.804688 144.445312 36.742188 162.953125 53.238281 171.6875 C 59.640625 175.078125 66.332031 175.390625 72.128906 174.511719 C 72.726562 174.421875 73.316406 174.320312 73.898438 174.203125 C 82.140625 172.574219 88.171875 168.777344 88.171875 168.777344 C 88.171875 168.777344 87.199219 187.210938 113.398438 192.0625 C 120.378906 193.355469 126.519531 192.988281 131.792969 191.761719 C 132.402344 191.621094 133.003906 191.46875 133.589844 191.304688 C 146.957031 187.574219 154.152344 178.480469 154.152344 178.480469 C 154.152344 178.480469 158.035156 208.558594 184.234375 211.472656 C 210.433594 214.382812 218.195312 190.125 218.195312 190.125 C 218.195312 190.125 202.863281 196.496094 186.425781 188.277344 C 169.101562 179.613281 158.421875 157.839844 158.421875 157.839844 C 158.421875 157.839844 142.453125 174.867188 124.332031 170.925781 C 103.332031 166.363281 103.332031 148.097656 103.332031 148.097656 C 103.332031 148.097656 90.546875 153.578125 75.9375 149.011719 C 61.328125 144.445312 62.242188 133.488281 62.242188 133.488281 L 0.886719 104.714844 L 0.886719 112.199219 C 15.777344 123.960938 30.933594 134.476562 39.277344 140.109375 C 39.285156 140.113281 39.292969 140.121094 39.300781 140.125 Z M 2.390625 290.355469 C 1.890625 289.933594 1.386719 289.511719 0.886719 289.089844 L 0.886719 269.992188 C 47.042969 294.742188 107.359375 326.582031 129.8125 336.203125 C 129.8125 336.203125 133.769531 362.988281 152.640625 373.339844 C 172.832031 384.410156 203.164062 379.425781 203.164062 379.425781 C 203.164062 379.425781 213.964844 401.972656 237.863281 410.777344 C 260.996094 419.300781 268.605469 405.601562 268.605469 405.601562 C 268.605469 405.601562 303.226562 431.1875 348.546875 443.417969 C 347.890625 443.417969 347.226562 443.40625 346.550781 443.386719 C 346.351562 443.382812 346.152344 443.375 345.949219 443.367188 C 345.46875 443.355469 344.980469 443.335938 344.492188 443.3125 C 344.261719 443.300781 344.03125 443.292969 343.800781 443.277344 C 343.304688 443.253906 342.804688 443.222656 342.296875 443.1875 C 342.097656 443.175781 341.894531 443.164062 341.691406 443.148438 C 340.28125 443.046875 338.847656 442.917969 337.394531 442.765625 C 337.183594 442.742188 336.96875 442.714844 336.753906 442.691406 C 336.230469 442.636719 335.707031 442.574219 335.175781 442.507812 C 334.933594 442.476562 334.691406 442.449219 334.449219 442.417969 C 333.914062 442.347656 333.382812 442.277344 332.84375 442.203125 C 332.632812 442.171875 332.417969 442.144531 332.203125 442.113281 C 330.710938 441.898438 329.203125 441.660156 327.6875 441.398438 C 327.46875 441.363281 327.25 441.320312 327.027344 441.28125 C 326.484375 441.1875 325.9375 441.089844 325.390625 440.988281 C 325.136719 440.9375 324.882812 440.890625 324.628906 440.84375 C 324.082031 440.738281 323.535156 440.632812 322.984375 440.523438 C 322.765625 440.476562 322.542969 440.433594 322.324219 440.390625 C 320.792969 440.078125 319.261719 439.746094 317.730469 439.390625 C 317.5 439.339844 317.273438 439.285156 317.042969 439.230469 C 316.5 439.105469 315.957031 438.976562 315.414062 438.84375 C 315.15625 438.78125 314.894531 438.71875 314.636719 438.652344 C 314.09375 438.519531 313.550781 438.382812 313.007812 438.242188 C 312.78125 438.183594 312.558594 438.128906 312.332031 438.070312 C 310.8125 437.675781 309.300781 437.261719 307.796875 436.832031 C 307.566406 436.765625 307.335938 436.699219 307.101562 436.632812 C 306.574219 436.480469 306.046875 436.324219 305.523438 436.167969 C 305.269531 436.09375 305.015625 436.015625 304.761719 435.941406 C 304.238281 435.78125 303.710938 435.621094 303.191406 435.457031 C 302.964844 435.386719 302.742188 435.320312 302.519531 435.246094 C 301.046875 434.78125 299.597656 434.304688 298.164062 433.8125 C 297.945312 433.738281 297.730469 433.664062 297.511719 433.585938 C 297.007812 433.410156 296.503906 433.234375 296.007812 433.054688 C 295.765625 432.96875 295.527344 432.882812 295.289062 432.796875 C 294.796875 432.617188 294.304688 432.4375 293.820312 432.257812 C 293.601562 432.175781 293.386719 432.097656 293.171875 432.015625 C 292.484375 431.757812 291.804688 431.496094 291.132812 431.230469 C 291.125 431.230469 291.121094 431.226562 291.113281 431.226562 C 290.445312 430.964844 289.789062 430.695312 289.132812 430.429688 C 288.929688 430.34375 288.726562 430.261719 288.523438 430.175781 C 288.066406 429.988281 287.613281 429.796875 287.164062 429.605469 C 286.9375 429.507812 286.714844 429.410156 286.488281 429.316406 C 286.046875 429.125 285.605469 428.929688 285.167969 428.734375 C 284.972656 428.648438 284.777344 428.558594 284.582031 428.472656 C 283.960938 428.195312 283.351562 427.914062 282.75 427.628906 C 282.746094 427.628906 282.742188 427.625 282.738281 427.625 C 282.140625 427.34375 281.558594 427.058594 280.980469 426.773438 C 280.800781 426.6875 280.628906 426.597656 280.449219 426.507812 C 280.046875 426.308594 279.648438 426.105469 279.253906 425.902344 C 279.058594 425.800781 278.867188 425.699219 278.671875 425.597656 C 278.285156 425.390625 277.90625 425.1875 277.53125 424.984375 C 277.363281 424.894531 277.195312 424.800781 277.03125 424.710938 C 276.5 424.417969 275.980469 424.125 275.472656 423.828125 C 275.472656 423.828125 274.417969 432.414062 262.917969 436.46875 C 262.402344 436.648438 261.859375 436.824219 261.300781 436.984375 C 256.554688 438.363281 250.246094 439.007812 241.820312 438.167969 C 223.941406 436.394531 212.855469 429.640625 206.078125 422.84375 C 198.066406 414.808594 196.082031 406.710938 196.082031 406.710938 C 196.082031 406.710938 195.640625 406.941406 194.820312 407.292969 C 190.050781 409.34375 172.066406 415.730469 148.074219 407.730469 C 107.894531 394.339844 107.894531 361.464844 107.894531 361.464844 C 107.894531 361.464844 107.777344 361.402344 107.550781 361.277344 C 107.519531 361.257812 107.46875 361.226562 107.429688 361.207031 C 107.332031 361.152344 107.230469 361.097656 107.105469 361.027344 C 107.054688 360.996094 106.992188 360.960938 106.9375 360.933594 C 106.8125 360.863281 106.6875 360.792969 106.542969 360.714844 C 106.4375 360.652344 106.316406 360.585938 106.199219 360.519531 C 106.074219 360.449219 105.949219 360.378906 105.8125 360.300781 C 105.679688 360.226562 105.535156 360.144531 105.386719 360.058594 C 105.234375 359.972656 105.074219 359.882812 104.90625 359.785156 C 104.757812 359.703125 104.601562 359.613281 104.441406 359.523438 C 104.242188 359.410156 104.035156 359.292969 103.824219 359.171875 C 103.664062 359.082031 103.503906 358.988281 103.335938 358.894531 C 103.121094 358.773438 102.902344 358.644531 102.675781 358.515625 C 102.464844 358.394531 102.257812 358.277344 102.035156 358.148438 C 101.828125 358.03125 101.613281 357.90625 101.398438 357.78125 C 101.152344 357.640625 100.910156 357.5 100.648438 357.351562 C 100.410156 357.214844 100.160156 357.066406 99.914062 356.925781 C 99.65625 356.777344 99.410156 356.632812 99.140625 356.476562 C 98.863281 356.316406 98.5625 356.140625 98.273438 355.972656 C 98.011719 355.820312 97.761719 355.675781 97.492188 355.519531 C 97.140625 355.3125 96.765625 355.09375 96.398438 354.878906 C 95.898438 354.585938 95.386719 354.285156 94.859375 353.972656 C 94.546875 353.792969 94.246094 353.613281 93.925781 353.421875 C 93.59375 353.226562 93.246094 353.023438 92.90625 352.820312 C 92.585938 352.628906 92.273438 352.445312 91.949219 352.25 C 91.582031 352.035156 91.207031 351.808594 90.832031 351.585938 C 90.515625 351.398438 90.203125 351.210938 89.878906 351.015625 C 89.488281 350.785156 89.089844 350.546875 88.691406 350.308594 C 88.355469 350.105469 88.023438 349.90625 87.679688 349.699219 C 87.277344 349.457031 86.867188 349.210938 86.457031 348.960938 C 86.109375 348.753906 85.761719 348.542969 85.40625 348.328125 C 84.984375 348.074219 84.558594 347.8125 84.125 347.550781 C 83.765625 347.332031 83.398438 347.109375 83.03125 346.882812 C 82.59375 346.617188 82.15625 346.347656 81.707031 346.074219 C 81.335938 345.847656 80.960938 345.617188 80.585938 345.386719 C 80.121094 345.101562 79.652344 344.8125 79.179688 344.523438 C 78.816406 344.300781 78.449219 344.070312 78.082031 343.84375 C 77.59375 343.542969 77.101562 343.238281 76.605469 342.929688 C 76.226562 342.695312 75.84375 342.453125 75.460938 342.21875 C 74.960938 341.902344 74.457031 341.589844 73.945312 341.269531 C 73.59375 341.050781 73.230469 340.824219 72.875 340.597656 C 72.320312 340.25 71.765625 339.90625 71.203125 339.550781 C 70.917969 339.371094 70.628906 339.183594 70.34375 339.003906 C 68.210938 337.65625 66.027344 336.261719 63.796875 334.824219 C 63.484375 334.621094 63.175781 334.425781 62.863281 334.21875 C 62.257812 333.828125 61.648438 333.433594 61.035156 333.035156 C 60.664062 332.792969 60.292969 332.550781 59.917969 332.308594 C 59.335938 331.929688 58.753906 331.546875 58.167969 331.160156 C 57.75 330.886719 57.332031 330.613281 56.910156 330.332031 C 56.335938 329.957031 55.757812 329.574219 55.183594 329.191406 C 54.75 328.90625 54.320312 328.621094 53.886719 328.335938 C 53.308594 327.949219 52.726562 327.5625 52.144531 327.171875 C 51.703125 326.875 51.261719 326.582031 50.820312 326.285156 C 50.230469 325.886719 49.640625 325.492188 49.050781 325.089844 C 48.617188 324.800781 48.183594 324.503906 47.75 324.210938 C 47.148438 323.800781 46.546875 323.394531 45.941406 322.980469 C 45.507812 322.683594 45.070312 322.382812 44.632812 322.085938 C 44.023438 321.667969 43.414062 321.25 42.804688 320.828125 C 42.378906 320.53125 41.953125 320.234375 41.523438 319.941406 C 40.902344 319.507812 40.277344 319.074219 39.652344 318.636719 C 39.234375 318.347656 38.820312 318.054688 38.402344 317.761719 C 37.765625 317.3125 37.125 316.867188 36.488281 316.414062 C 36.097656 316.140625 35.710938 315.863281 35.320312 315.589844 C 34.652344 315.113281 33.980469 314.636719 33.3125 314.160156 C 33.089844 314 32.867188 313.839844 32.644531 313.679688 C 30.84375 312.386719 29.039062 311.078125 27.238281 309.757812 C 27.214844 309.742188 27.1875 309.722656 27.164062 309.707031 C 26.460938 309.191406 25.761719 308.667969 25.058594 308.148438 C 24.703125 307.886719 24.347656 307.625 23.992188 307.359375 C 23.355469 306.882812 22.71875 306.40625 22.082031 305.929688 C 21.660156 305.613281 21.242188 305.300781 20.824219 304.984375 C 20.214844 304.523438 19.605469 304.058594 18.996094 303.59375 C 18.554688 303.257812 18.117188 302.925781 17.679688 302.589844 C 17.078125 302.128906 16.480469 301.667969 15.886719 301.207031 C 15.441406 300.863281 15 300.519531 14.558594 300.175781 C 13.964844 299.710938 13.375 299.25 12.785156 298.785156 C 12.34375 298.4375 11.902344 298.089844 11.460938 297.742188 C 10.878906 297.277344 10.292969 296.8125 9.714844 296.347656 C 9.273438 295.996094 8.832031 295.640625 8.394531 295.289062 C 7.816406 294.820312 7.238281 294.351562 6.664062 293.882812 C 6.230469 293.53125 5.800781 293.175781 5.371094 292.824219 C 4.796875 292.351562 4.226562 291.882812 3.65625 291.410156 C 3.234375 291.0625 2.816406 290.707031 2.390625 290.355469 Z M 142.964844 378.363281 C 143.421875 379.511719 144.722656 380.070312 145.867188 379.613281 C 147.015625 379.15625 147.578125 377.859375 147.121094 376.710938 C 146.664062 375.5625 145.363281 375 144.214844 375.457031 C 143.066406 375.917969 142.507812 377.21875 142.964844 378.363281 Z M 389.953125 310.738281 C 376.964844 306.679688 372.503906 292.070312 372.503906 292.070312 C 372.503906 292.070312 364.792969 292.882812 359.515625 288.824219 C 354.238281 284.765625 349.777344 275.835938 349.777344 275.835938 C 335.238281 268.726562 313.511719 253.402344 305.25 247.441406 C 305.496094 247.835938 305.757812 248.230469 306.023438 248.628906 C 306.085938 248.722656 306.148438 248.8125 306.210938 248.90625 C 306.4375 249.238281 306.667969 249.574219 306.910156 249.914062 C 306.957031 249.984375 307.007812 250.050781 307.058594 250.121094 C 307.347656 250.527344 307.644531 250.933594 307.953125 251.339844 C 308 251.402344 308.046875 251.464844 308.09375 251.527344 C 308.359375 251.875 308.628906 252.226562 308.90625 252.574219 C 308.976562 252.667969 309.054688 252.761719 309.128906 252.855469 C 309.777344 253.671875 310.453125 254.492188 311.148438 255.3125 C 311.226562 255.40625 311.304688 255.496094 311.382812 255.585938 C 311.6875 255.941406 311.996094 256.296875 312.308594 256.65625 C 312.359375 256.710938 312.410156 256.769531 312.460938 256.828125 C 312.828125 257.242188 313.195312 257.652344 313.570312 258.0625 C 313.628906 258.128906 313.691406 258.195312 313.75 258.265625 C 314.070312 258.617188 314.394531 258.964844 314.71875 259.3125 C 314.796875 259.394531 314.871094 259.480469 314.949219 259.5625 C 315.707031 260.371094 316.476562 261.175781 317.25 261.96875 C 317.332031 262.054688 317.417969 262.136719 317.5 262.222656 C 317.84375 262.574219 318.1875 262.921875 318.527344 263.265625 C 318.574219 263.3125 318.617188 263.359375 318.664062 263.402344 C 319.054688 263.792969 319.445312 264.179688 319.835938 264.566406 C 319.898438 264.628906 319.964844 264.691406 320.027344 264.753906 C 320.359375 265.078125 320.6875 265.398438 321.019531 265.71875 C 321.097656 265.792969 321.175781 265.871094 321.253906 265.945312 C 321.640625 266.320312 322.027344 266.691406 322.410156 267.054688 C 322.785156 267.410156 323.15625 267.761719 323.523438 268.105469 C 323.605469 268.183594 323.6875 268.257812 323.769531 268.335938 C 324.113281 268.65625 324.449219 268.972656 324.785156 269.28125 C 324.8125 269.304688 324.835938 269.328125 324.863281 269.351562 C 325.230469 269.691406 325.589844 270.023438 325.949219 270.347656 C 326.015625 270.410156 326.085938 270.472656 326.15625 270.535156 C 326.449219 270.804688 326.742188 271.070312 327.03125 271.332031 C 327.097656 271.390625 327.164062 271.449219 327.230469 271.507812 C 327.570312 271.816406 327.902344 272.113281 328.230469 272.40625 C 328.257812 272.429688 328.28125 272.449219 328.308594 272.472656 C 328.609375 272.742188 328.898438 273 329.1875 273.253906 C 329.253906 273.3125 329.324219 273.371094 329.390625 273.429688 C 329.6875 273.691406 329.976562 273.945312 330.253906 274.1875 C 330.261719 274.195312 330.269531 274.199219 330.277344 274.207031 C 330.570312 274.464844 330.851562 274.707031 331.128906 274.945312 C 331.1875 274.996094 331.246094 275.046875 331.304688 275.097656 C 331.523438 275.285156 331.742188 275.472656 331.949219 275.648438 C 332 275.691406 332.046875 275.734375 332.097656 275.777344 C 332.335938 275.980469 332.570312 276.179688 332.789062 276.363281 C 332.832031 276.402344 332.871094 276.433594 332.914062 276.472656 C 333.09375 276.621094 333.265625 276.765625 333.425781 276.902344 C 333.480469 276.949219 333.535156 276.992188 333.589844 277.039062 C 333.769531 277.191406 333.941406 277.335938 334.101562 277.46875 C 334.105469 277.472656 334.109375 277.476562 334.117188 277.480469 C 334.285156 277.621094 334.433594 277.746094 334.574219 277.863281 C 334.617188 277.894531 334.65625 277.925781 334.695312 277.960938 C 334.792969 278.042969 334.882812 278.117188 334.96875 278.183594 C 334.996094 278.210938 335.027344 278.234375 335.054688 278.257812 C 335.15625 278.339844 335.246094 278.414062 335.316406 278.472656 C 335.332031 278.484375 335.339844 278.492188 335.351562 278.5 C 335.410156 278.546875 335.460938 278.589844 335.496094 278.617188 C 335.515625 278.632812 335.519531 278.636719 335.53125 278.648438 C 335.546875 278.660156 335.570312 278.679688 335.570312 278.679688 C 335.570312 307.492188 360.328125 305.464844 360.328125 305.464844 C 360.328125 305.464844 369.308594 320.96875 387.113281 324.132812 C 405.375 327.378906 408.621094 312.769531 408.621094 312.769531 C 408.621094 312.769531 402.941406 314.796875 389.953125 310.738281 Z M 109.863281 204.085938 C 108.65625 204.566406 108.070312 205.933594 108.550781 207.140625 C 109.03125 208.347656 110.398438 208.933594 111.605469 208.453125 C 112.808594 207.972656 113.398438 206.605469 112.917969 205.402344 C 112.4375 204.195312 111.070312 203.605469 109.863281 204.085938 Z M 318.21875 315.027344 C 316.101562 315.867188 315.070312 318.265625 315.914062 320.382812 C 316.753906 322.496094 319.152344 323.527344 321.269531 322.6875 C 323.382812 321.84375 324.414062 319.445312 323.574219 317.332031 C 322.730469 315.214844 320.332031 314.183594 318.21875 315.027344 Z M 342.667969 133.785156 C 343.875 133.304688 344.464844 131.9375 343.980469 130.730469 C 343.5 129.523438 342.132812 128.9375 340.929688 129.417969 C 339.722656 129.898438 339.132812 131.265625 339.613281 132.46875 C 340.09375 133.675781 341.460938 134.265625 342.667969 133.785156 Z M 285.621094 206.097656 C 286.078125 207.242188 287.378906 207.804688 288.527344 207.347656 C 289.671875 206.890625 290.234375 205.589844 289.777344 204.441406 C 289.320312 203.296875 288.019531 202.734375 286.871094 203.191406 C 285.722656 203.648438 285.164062 204.949219 285.621094 206.097656 Z M 175.339844 478.609375 C 174.3125 477.554688 172.625 477.53125 171.574219 478.5625 C 170.519531 479.589844 170.5 481.277344 171.527344 482.332031 C 172.554688 483.382812 174.242188 483.402344 175.296875 482.375 C 176.347656 481.347656 176.371094 479.660156 175.339844 478.609375 Z M 258.113281 240.691406 C 256.90625 241.171875 256.316406 242.539062 256.800781 243.746094 C 257.28125 244.953125 258.648438 245.539062 259.851562 245.058594 C 261.058594 244.578125 261.648438 243.210938 261.167969 242.003906 C 260.6875 240.800781 259.320312 240.210938 258.113281 240.691406 Z M 272.03125 77.835938 C 273.238281 77.351562 273.828125 75.988281 273.347656 74.78125 C 272.867188 73.574219 271.5 72.984375 270.292969 73.464844 C 269.085938 73.945312 268.5 75.3125 268.980469 76.519531 C 269.460938 77.726562 270.828125 78.3125 272.03125 77.835938 Z M 366.53125 97.984375 C 367.734375 97.503906 368.324219 96.136719 367.84375 94.929688 C 367.363281 93.726562 365.996094 93.136719 364.789062 93.617188 C 363.582031 94.097656 362.996094 95.464844 363.476562 96.671875 C 363.957031 97.878906 365.324219 98.464844 366.53125 97.984375 Z M 352.605469 481.671875 C 351.613281 480.941406 350.210938 481.152344 349.476562 482.148438 C 348.746094 483.140625 348.957031 484.542969 349.953125 485.273438 C 350.945312 486.007812 352.34375 485.792969 353.078125 484.800781 C 353.8125 483.808594 353.597656 482.40625 352.605469 481.671875 Z M 213 210.917969 C 210.886719 211.761719 209.855469 214.160156 210.695312 216.273438 C 211.539062 218.390625 213.933594 219.421875 216.050781 218.578125 C 218.167969 217.738281 219.199219 215.339844 218.355469 213.222656 C 217.511719 211.109375 215.117188 210.074219 213 210.917969 Z M 270.976562 191.164062 C 270.226562 191.464844 269.863281 192.3125 270.160156 193.0625 C 270.460938 193.8125 271.308594 194.175781 272.058594 193.878906 C 272.808594 193.578125 273.171875 192.730469 272.875 191.980469 C 272.574219 191.234375 271.726562 190.867188 270.976562 191.164062 Z M 379.417969 485.203125 C 378.9375 485.851562 379.078125 486.765625 379.726562 487.246094 C 380.375 487.722656 381.289062 487.585938 381.769531 486.933594 C 382.246094 486.285156 382.109375 485.371094 381.460938 484.894531 C 380.808594 484.417969 379.894531 484.554688 379.417969 485.203125 Z M 260.542969 122.460938 C 261.292969 122.160156 261.660156 121.3125 261.359375 120.5625 C 261.0625 119.816406 260.210938 119.449219 259.464844 119.746094 C 258.714844 120.046875 258.347656 120.894531 258.648438 121.644531 C 258.945312 122.394531 259.792969 122.757812 260.542969 122.460938 Z M 377.105469 507.960938 C 376.113281 507.226562 374.714844 507.4375 373.980469 508.433594 C 373.246094 509.425781 373.460938 510.828125 374.453125 511.558594 C 375.445312 512.292969 376.847656 512.082031 377.582031 511.085938 C 378.3125 510.09375 378.101562 508.691406 377.105469 507.960938 Z M 285.113281 34.773438 C 285.863281 34.476562 286.230469 33.628906 285.929688 32.878906 C 285.632812 32.128906 284.785156 31.761719 284.035156 32.0625 C 283.285156 32.359375 282.921875 33.210938 283.21875 33.960938 C 283.515625 34.707031 284.367188 35.074219 285.113281 34.773438 Z M 249.59375 66.195312 C 251.933594 65.265625 253.074219 62.613281 252.144531 60.277344 C 251.210938 57.9375 248.5625 56.796875 246.222656 57.726562 C 243.886719 58.660156 242.742188 61.308594 243.675781 63.648438 C 244.605469 65.984375 247.257812 67.128906 249.59375 66.195312 Z M 492.628906 408.953125 C 494.746094 408.109375 495.777344 405.710938 494.933594 403.597656 C 494.09375 401.480469 491.695312 400.449219 489.578125 401.292969 C 487.460938 402.132812 486.433594 404.53125 487.273438 406.644531 C 488.117188 408.761719 490.511719 409.792969 492.628906 408.953125 Z M 127.664062 221.074219 C 126.914062 221.371094 126.546875 222.222656 126.847656 222.96875 C 127.144531 223.71875 127.992188 224.085938 128.742188 223.785156 C 129.492188 223.488281 129.859375 222.640625 129.558594 221.890625 C 129.261719 221.140625 128.410156 220.773438 127.664062 221.074219 Z M 382.542969 180.050781 C 383.289062 179.75 383.65625 178.902344 383.359375 178.152344 C 383.058594 177.402344 382.210938 177.039062 381.460938 177.335938 C 380.710938 177.636719 380.347656 178.484375 380.644531 179.234375 C 380.945312 179.984375 381.792969 180.347656 382.542969 180.050781 Z M 166.214844 520.84375 C 165.011719 521.324219 164.421875 522.691406 164.902344 523.898438 C 165.382812 525.105469 166.75 525.691406 167.957031 525.210938 C 169.164062 524.730469 169.75 523.363281 169.269531 522.15625 C 168.789062 520.953125 167.421875 520.363281 166.214844 520.84375 Z M 120.03125 421.132812 C 119.152344 421.480469 118.683594 422.371094 118.980469 423.117188 C 119.277344 423.863281 120.230469 424.1875 121.109375 423.835938 C 121.988281 423.488281 122.457031 422.597656 122.160156 421.851562 C 121.863281 421.105469 120.910156 420.78125 120.03125 421.132812 Z M 108.148438 432.40625 C 106.941406 432.886719 106.355469 434.253906 106.835938 435.460938 C 107.316406 436.667969 108.683594 437.257812 109.886719 436.777344 C 111.09375 436.296875 111.683594 434.929688 111.203125 433.722656 C 110.722656 432.515625 109.355469 431.925781 108.148438 432.40625 Z M 145.867188 379.613281 C 147.015625 379.15625 147.578125 377.859375 147.121094 376.710938 C 146.664062 375.5625 145.363281 375 144.214844 375.457031 C 143.066406 375.917969 142.507812 377.214844 142.964844 378.363281 C 143.421875 379.511719 144.722656 380.070312 145.867188 379.613281 Z M 147.113281 424.414062 C 145 425.253906 143.96875 427.652344 144.808594 429.769531 C 145.652344 431.882812 148.050781 432.914062 150.164062 432.074219 C 152.28125 431.230469 153.3125 428.835938 152.472656 426.71875 C 151.628906 424.601562 149.230469 423.570312 147.113281 424.414062 Z M 92.566406 368.753906 C 91.359375 369.234375 90.773438 370.601562 91.253906 371.808594 C 91.734375 373.011719 93.101562 373.601562 94.308594 373.121094 C 95.511719 372.640625 96.101562 371.273438 95.621094 370.066406 C 95.140625 368.863281 93.773438 368.273438 92.566406 368.753906 Z M 200.804688 18.640625 C 201.949219 18.183594 202.511719 16.886719 202.054688 15.738281 C 201.597656 14.589844 200.296875 14.027344 199.148438 14.484375 C 198.003906 14.941406 197.441406 16.242188 197.898438 17.390625 C 198.355469 18.539062 199.65625 19.097656 200.804688 18.640625 Z M 64.621094 376.660156 C 64.953125 375.773438 64.613281 374.828125 63.859375 374.546875 C 63.105469 374.261719 62.226562 374.75 61.894531 375.636719 C 61.5625 376.523438 61.90625 377.46875 62.65625 377.75 C 63.410156 378.03125 64.292969 377.542969 64.621094 376.660156 Z M 66.421875 390.230469 C 65.207031 389.777344 63.851562 390.390625 63.394531 391.609375 C 62.9375 392.824219 63.554688 394.179688 64.773438 394.636719 C 65.988281 395.089844 67.34375 394.476562 67.800781 393.257812 C 68.253906 392.042969 67.636719 390.6875 66.421875 390.230469 Z M 20.984375 190.984375 C 19.835938 191.441406 19.277344 192.742188 19.734375 193.890625 C 20.191406 195.035156 21.488281 195.597656 22.636719 195.140625 C 23.785156 194.683594 24.34375 193.382812 23.886719 192.234375 C 23.429688 191.085938 22.132812 190.527344 20.984375 190.984375 Z M 72.242188 28.835938 C 73.449219 28.355469 74.035156 26.988281 73.554688 25.785156 C 73.074219 24.578125 71.707031 23.988281 70.5 24.46875 C 69.296875 24.949219 68.707031 26.316406 69.1875 27.523438 C 69.667969 28.730469 71.035156 29.320312 72.242188 28.835938 Z M 48.097656 43.109375 C 50.214844 42.265625 51.246094 39.867188 50.402344 37.753906 C 49.5625 35.636719 47.164062 34.605469 45.050781 35.449219 C 42.933594 36.289062 41.902344 38.6875 42.746094 40.804688 C 43.585938 42.917969 45.984375 43.953125 48.097656 43.109375 Z M 70.96875 49.105469 C 70.222656 49.40625 69.855469 50.253906 70.15625 51.003906 C 70.453125 51.753906 71.300781 52.117188 72.050781 51.820312 C 72.800781 51.519531 73.164062 50.671875 72.867188 49.921875 C 72.570312 49.175781 71.71875 48.808594 70.96875 49.105469 Z M 505.109375 365.464844 C 506.316406 364.984375 506.90625 363.617188 506.425781 362.410156 C 505.945312 361.203125 504.578125 360.613281 503.371094 361.09375 C 502.164062 361.578125 501.574219 362.945312 502.054688 364.148438 C 502.539062 365.355469 503.902344 365.945312 505.109375 365.464844 Z M 462.683594 370.09375 C 463.4375 370.375 464.316406 369.886719 464.648438 369 C 464.976562 368.117188 464.636719 367.171875 463.882812 366.890625 C 463.128906 366.605469 462.25 367.09375 461.917969 367.980469 C 461.585938 368.863281 461.929688 369.808594 462.683594 370.09375 Z M 463.417969 383.953125 C 462.964844 385.167969 463.582031 386.523438 464.796875 386.980469 C 466.011719 387.433594 467.367188 386.816406 467.824219 385.601562 C 468.28125 384.386719 467.664062 383.03125 466.445312 382.574219 C 465.230469 382.117188 463.875 382.734375 463.417969 383.953125 Z M 463.417969 383.953125 " fill-opacity="1" fill-rule="nonzero"/></g></svg>